<?xml version="1.0" encoding="UTF-8"?>
<svg id="Capa_2" xmlns="http://www.w3.org/2000/svg" viewBox="0 0 45 45">
  <defs>
    <style>
      .cls-1 {
        fill: none;
      }

      .cls-2 {
        fill: #93c4fc;
      }
    </style>
  </defs>
  <g id="Capa_1-2" data-name="Capa_1">
    <g>
      <rect class="cls-1" x="2.5" y="2.5" width="40" height="40"/>
      <rect class="cls-1" width="45" height="45"/>
      <g>
        <path class="cls-2" d="M22.66,32.58c-.33,0-.66-.11-.93-.33-.6-.5-1.68-1.09-3.42-1.09H7.13c-1.15,0-2.08-.93-2.08-2.08V5.39c0-1.15.93-2.08,2.08-2.08h13.59c1.15,0,2.08.93,2.08,2.08v24.14c0,.27-.22.48-.48.48s-.48-.22-.48-.48V5.39c0-.62-.5-1.12-1.12-1.12H7.13c-.62,0-1.12.5-1.12,1.12v23.68c0,.62.5,1.12,1.12,1.12h11.18c2.02,0,3.31.71,4.03,1.31.17.14.43.15.62.02l1.64-1.04c.23-.14.52-.08.67.15.14.22.08.52-.15.67l-1.64,1.04c-.26.16-.54.24-.83.24Z"/>
        <path class="cls-2" d="M22.62,30.12c-.34,0-.69-.12-.97-.35-.55-.44-1.79-1.17-3.97-1.17H5.53c-.27,0-.48-.22-.48-.48s.22-.48.48-.48h12.16c2.35,0,3.78.75,4.57,1.38.2.16.46.18.65.05l1.69-1.1c.22-.15.52-.08.67.14.15.22.08.52-.14.67l-1.69,1.1c-.25.16-.53.24-.81.24Z"/>
        <path class="cls-2" d="M39.45,21.16c-.27,0-.48-.22-.48-.48V5.86c0-.5-.14-.89-.41-1.15-.48-.46-1.26-.43-1.27-.44h-11.3c-1.29,0-2.89.22-3.21,1.27-.08.26-.34.4-.6.33-.26-.08-.4-.34-.33-.6.39-1.3,1.78-1.96,4.13-1.96h11.28s1.16-.05,1.95.7c.47.45.71,1.07.71,1.85v14.82c0,.27-.22.48-.48.48Z"/>
        <path class="cls-2" d="M42.02,22.51c-.27,0-.48-.22-.48-.48V7.29c0-.31-.25-.55-.55-.55h-1.41c-.27,0-.48-.22-.48-.48s.22-.48.48-.48h1.41c.84,0,1.52.68,1.52,1.52v14.73c0,.27-.22.48-.48.48Z"/>
        <path class="cls-2" d="M18.66,15.62h-8.77c-.84,0-1.52-.68-1.52-1.52v-5.42c0-.84.68-1.52,1.52-1.52h8.77c.84,0,1.52.68,1.52,1.52v5.42c0,.84-.68,1.52-1.52,1.52ZM9.89,8.12c-.31,0-.55.25-.55.55v5.42c0,.31.25.55.55.55h8.77c.31,0,.55-.25.55-.55v-5.42c0-.31-.25-.55-.55-.55h-8.77Z"/>
        <path class="cls-2" d="M19.7,19.04h-10.84c-.27,0-.48-.22-.48-.48s.22-.48.48-.48h10.84c.27,0,.48.22.48.48s-.22.48-.48.48Z"/>
        <path class="cls-2" d="M19.7,21.28h-10.84c-.27,0-.48-.22-.48-.48s.22-.48.48-.48h10.84c.27,0,.48.22.48.48s-.22.48-.48.48Z"/>
        <path class="cls-2" d="M19.7,23.56h-10.84c-.27,0-.48-.22-.48-.48s.22-.48.48-.48h10.84c.27,0,.48.22.48.48s-.22.48-.48.48Z"/>
        <path class="cls-2" d="M36.43,8.56h-10.84c-.27,0-.48-.22-.48-.48s.22-.48.48-.48h10.84c.27,0,.48.22.48.48s-.22.48-.48.48Z"/>
        <path class="cls-2" d="M36.43,10.8h-10.84c-.27,0-.48-.22-.48-.48s.22-.48.48-.48h10.84c.27,0,.48.22.48.48s-.22.48-.48.48Z"/>
        <path class="cls-2" d="M36.43,13.08h-10.84c-.27,0-.48-.22-.48-.48s.22-.48.48-.48h10.84c.27,0,.48.22.48.48s-.22.48-.48.48Z"/>
        <path class="cls-2" d="M30.79,37.25c-.14,0-.27-.06-.37-.17-.14-.17-3.43-4.11-3.83-6.8-.15-1.03-.35-1.99-.6-2.87-.16-.55.04-1.13.51-1.48.46-.33,1.05-.35,1.51-.05.21.13.41.31.6.51.38.41.72.9.99,1.37v-10.24s-.05-1.44.76-2.27c.39-.4.9-.61,1.51-.61s1.11.21,1.48.62c.81.88.69,2.4.69,2.46v7.06c0,.27-.21.48-.48.48s-.48-.22-.48-.48v-7.1c.03-.36,0-1.3-.44-1.77-.38-.42-1.18-.41-1.58,0-.43.45-.5,1.3-.49,1.59v11.42c0,.32-.22.6-.54.67-.32.07-.63-.09-.76-.38-.29-.63-.76-1.51-1.37-2.17-.14-.15-.28-.27-.42-.36-.18-.12-.35-.03-.41.02-.11.08-.21.24-.16.44.26.92.47,1.92.63,2.99.36,2.42,3.58,6.28,3.61,6.32.17.2.15.51-.06.68-.09.08-.2.11-.31.11Z"/>
        <path class="cls-2" d="M36.42,25.78c-.27,0-.48-.22-.48-.48v-2.87c0-.25-.04-.57-.23-.68-.36-.22-1.19.09-1.53.27-.23.12-.53.03-.65-.2-.12-.23-.04-.53.2-.65.16-.08,1.56-.8,2.48-.24.32.19.7.61.7,1.51v2.87c0,.27-.22.48-.48.48Z"/>
        <path class="cls-2" d="M38.79,25.78s-.06,0-.09,0c-.26-.05-.43-.3-.38-.56.14-.73.18-1.94-.14-2.36-.06-.08-.13-.12-.23-.13-.89-.08-1.02.43-1.05.58-.04.26-.28.44-.54.42-.26-.03-.45-.26-.42-.52.06-.55.56-1.56,2.08-1.44.37.03.69.2.92.5.71.93.36,2.9.32,3.12-.04.23-.25.39-.47.39Z"/>
        <path class="cls-2" d="M40.65,37.25c-.1,0-.19-.03-.28-.09-.22-.15-.27-.45-.12-.67.35-.5.43-1.92.39-2.69v-7.52c0-1.3-.65-1.98-1.3-1.98-.27,0-.48-.22-.48-.48s.22-.48.48-.48c1.12,0,2.26,1.01,2.26,2.95v7.49c.01.22.1,2.34-.57,3.27-.09.13-.24.2-.39.2Z"/>
        <path class="cls-2" d="M41.13,41.69c-.27,0-.48-.22-.48-.48v-3.72h-10.95v1.47c0,.27-.22.48-.48.48s-.48-.22-.48-.48v-2.44h12.88v4.69c0,.27-.22.48-.48.48Z"/>
        <circle class="cls-2" cx="31.84" cy="39.35" r=".92"/>
        <path class="cls-2" d="M22.31,35.17c-.7,0-1.6-.31-2.67-.92-.74-.42-1.58-.64-2.43-.64H4c-.83,0-1.5-.67-1.5-1.5V7.25c0-.83.67-1.5,1.5-1.5h1.09c.26,0,.47.21.47.47s-.21.47-.47.47h-1.09c-.31,0-.57.26-.57.57v24.86c0,.31.26.57.57.57h13.21c1.01,0,2.01.26,2.89.76.9.51,1.69.79,2.21.79,1.05,0,2.9-1.07,3.52-1.48.22-.14.5-.08.65.13s.08.5-.13.65c-.1.07-2.49,1.63-4.03,1.63Z"/>
      </g>
    </g>
  </g>
</svg>