<svg id="Grupo_304" data-name="Grupo 304" xmlns="http://www.w3.org/2000/svg" xmlns:xlink="http://www.w3.org/1999/xlink" width="295.688" height="66.45" viewBox="0 0 295.688 66.45">
  <defs>
    <clipPath id="clip-path">
      <rect id="Rect치ngulo_135" data-name="Rect치ngulo 135" width="295.688" height="66.45" fill="none"/>
    </clipPath>
  </defs>
  <g id="Grupo_303" data-name="Grupo 303" clip-path="url(#clip-path)">
    <path id="Trazado_379" data-name="Trazado 379" d="M238.943,27.658h24.543c12.449,0,21.643,6.134,21.643,18.88,0,10.5-6.79,17.039-17.611,17.039h-9.9V79.048H238.943Zm18.673,22.969h1.909c3.4,0,7.073-.545,7.073-4.7,0-4.021-3.961-4.225-7.144-4.225h-1.839Z" transform="translate(-123.118 -14.251)" fill="#fff"/>
    <path id="Trazado_380" data-name="Trazado 380" d="M343.526,27.658h19.38v34.9h16.268V79.048H343.526Z" transform="translate(-177.006 -14.251)" fill="#fff"/>
    <path id="Trazado_381" data-name="Trazado 381" d="M424.469,73.205l7.648-45.547h19.946l7.355,26.99h.5a55.447,55.447,0,0,1,1.344-6.815l6.012-20.174H487l8.77,51.39H477.03L474.413,50.9h-.354a41.611,41.611,0,0,1-1.273,5.112l-7.71,23.037H453.76l-6.931-21.742a34.007,34.007,0,0,1-1.2-6.407h-.637c-.142,2.045-.283,4.158-.495,6.2l-2.264,21.946H423.488Z" transform="translate(-218.208 -14.251)" fill="#fff"/>
    <path id="Trazado_382" data-name="Trazado 382" d="M574.727,36.194a8.548,8.548,0,1,1,8.548,8.536,8.482,8.482,0,0,1-8.548-8.536m1.388,0a7.16,7.16,0,1,0,7.16-7.146,7.138,7.138,0,0,0-7.16,7.146m11.066,4.865H585.6l-2.451-4.431h-1.779v4.431h-1.389v-9.6h4.035c1.736,0,3.3.522,3.3,2.541a2.438,2.438,0,0,1-2.56,2.628Zm-5.815-8.21v2.389h1.476c1.3,0,3.081.217,3.081-1.086,0-1.216-1.02-1.3-2.17-1.3Z" transform="translate(-296.135 -14.251)" fill="#fff"/>
    <path id="Trazado_383" data-name="Trazado 383" d="M44.463,53.246a16.948,16.948,0,0,1-3.006,9.978,20.01,20.01,0,0,1-8.088,6.666,26.064,26.064,0,0,1-11.179,2.377,25.488,25.488,0,0,1-11.095-2.419,19.93,19.93,0,0,1-8.088-6.835A17.664,17.664,0,0,1,0,52.821a13.228,13.228,0,0,1,1.27-5.9,16.3,16.3,0,0,1,3.219-4.5,23.67,23.67,0,0,1,3.981-3.184,12.065,12.065,0,0,1-3.43-2.668,14.269,14.269,0,0,1-2.414-3.727,10.32,10.32,0,0,1-.932-4.277A14.415,14.415,0,0,1,3.6,21.154a17.2,17.2,0,0,1,4.954-5.42,24.148,24.148,0,0,1,6.606-3.3,22.87,22.87,0,0,1,7.03-1.143,23.275,23.275,0,0,1,7.072,1.143,24.652,24.652,0,0,1,6.691,3.3,16.858,16.858,0,0,1,4.954,5.336,14.217,14.217,0,0,1,1.863,7.326,11.052,11.052,0,0,1-.889,4.319,13.548,13.548,0,0,1-2.456,3.854,11.66,11.66,0,0,1-3.43,2.668,26.353,26.353,0,0,1,3.981,3.312,16.525,16.525,0,0,1,3.218,4.627,13.981,13.981,0,0,1,1.27,6.07m-13.72-.84a6.916,6.916,0,0,0-.72-3.193,7.254,7.254,0,0,0-1.948-2.384,9.052,9.052,0,0,0-2.71-1.492,9.691,9.691,0,0,0-3.176-.511,9.223,9.223,0,0,0-4.277.979,8.014,8.014,0,0,0-3.049,2.684,7.006,7.006,0,0,0-1.143,4,6.529,6.529,0,0,0,.72,3.024,7.985,7.985,0,0,0,4.616,3.961,9.78,9.78,0,0,0,3.134.511,9.213,9.213,0,0,0,4.277-.979,8.357,8.357,0,0,0,3.092-2.683,6.691,6.691,0,0,0,1.186-3.918M15.583,28.818a5.461,5.461,0,0,0,.974,3.345A5.8,5.8,0,0,0,19.1,34.112a8.381,8.381,0,0,0,3.176.635,7.445,7.445,0,0,0,3.049-.677,6.849,6.849,0,0,0,2.583-1.99,5.162,5.162,0,0,0,1.059-3.345,4.573,4.573,0,0,0-.932-2.838,6.607,6.607,0,0,0-2.414-1.948,7.77,7.77,0,0,0-3.43-.72,7.2,7.2,0,0,0-3.345.762,6.589,6.589,0,0,0-2.371,1.99,4.712,4.712,0,0,0-.889,2.837" transform="translate(0 -5.816)" fill="#fff"/>
    <path id="Trazado_384" data-name="Trazado 384" d="M182.974,30.168a5.619,5.619,0,0,1-5.6-5.6v-4.3h-4.221a4.3,4.3,0,0,0,0,8.6h5.523v5.522a4.3,4.3,0,1,0,8.6,0V30.168Z" transform="translate(-87.002 -10.442)" fill="#fff"/>
    <path id="Trazado_385" data-name="Trazado 385" d="M203.239,9.823h-5.523V4.3a4.3,4.3,0,1,0-8.6,0v9.823a4.317,4.317,0,0,0,4.3,4.3h9.823a4.3,4.3,0,0,0,0-8.6" transform="translate(-97.444)" fill="#fff"/>
    <rect id="Rect치ngulo_134" data-name="Rect치ngulo 134" width="3.863" height="1.147" transform="translate(62.869 29.817)" fill="#fff"/>
    <path id="Trazado_386" data-name="Trazado 386" d="M97.721,64.807h1.933l3.6,9.8H101.3l-.815-2.444h-3.6l-.819,2.444H94.1Zm2.315,6.019-1.349-4.045-1.355,4.045Z" transform="translate(-48.488 -33.393)" fill="#fff"/>
    <path id="Trazado_387" data-name="Trazado 387" d="M126.853,68.313v6.3h-1.906v-9.8h1.519l5.067,6.462V64.82h1.9v9.788h-1.588Z" transform="translate(-64.381 -33.392)" fill="#fff"/>
    <path id="Trazado_388" data-name="Trazado 388" d="M159.971,74.6a4.519,4.519,0,0,1-1.953-.414,4.616,4.616,0,0,1-1.505-1.125,5.274,5.274,0,0,1-.973-1.6,5.017,5.017,0,0,1-.345-1.829,4.876,4.876,0,0,1,.365-1.871,5.291,5.291,0,0,1,1.008-1.588,4.79,4.79,0,0,1,1.519-1.1,4.515,4.515,0,0,1,1.926-.407,4.367,4.367,0,0,1,1.94.428,4.665,4.665,0,0,1,1.5,1.145,5.472,5.472,0,0,1,.967,1.6,4.984,4.984,0,0,1-.014,3.679,5.183,5.183,0,0,1-1,1.588,4.7,4.7,0,0,1-1.518,1.1,4.556,4.556,0,0,1-1.913.4m-2.843-4.97a3.936,3.936,0,0,0,.193,1.228,3.363,3.363,0,0,0,.559,1.057,2.67,2.67,0,0,0,.9.732,2.643,2.643,0,0,0,1.208.269,2.6,2.6,0,0,0,1.229-.283,2.659,2.659,0,0,0,.9-.76,3.517,3.517,0,0,0,.545-1.063,3.865,3.865,0,0,0,.187-1.18,3.766,3.766,0,0,0-.2-1.222,3.5,3.5,0,0,0-.566-1.049,2.675,2.675,0,0,0-.9-.732,2.811,2.811,0,0,0-2.429.014,2.711,2.711,0,0,0-.891.752,3.465,3.465,0,0,0-.545,1.049,3.863,3.863,0,0,0-.186,1.188" transform="translate(-79.966 -33.319)" fill="#fff"/>
    <path id="Trazado_389" data-name="Trazado 389" d="M192.683,67.3a2.333,2.333,0,0,0-.352-.263,3.9,3.9,0,0,0-.621-.318,6.7,6.7,0,0,0-.794-.269,3.258,3.258,0,0,0-.869-.117,1.961,1.961,0,0,0-1.167.289.947.947,0,0,0-.393.81.823.823,0,0,0,.249.632,2.008,2.008,0,0,0,.746.4q.5.165,1.242.357a8.76,8.76,0,0,1,1.677.57,2.707,2.707,0,0,1,1.091.88,2.458,2.458,0,0,1,.38,1.435,2.862,2.862,0,0,1-.29,1.34,2.394,2.394,0,0,1-.8.9,3.563,3.563,0,0,1-1.159.5,5.828,5.828,0,0,1-1.381.158,7.177,7.177,0,0,1-1.463-.152,7.663,7.663,0,0,1-1.408-.434,6.489,6.489,0,0,1-1.243-.683l.842-1.643a2.712,2.712,0,0,0,.442.325,5.805,5.805,0,0,0,.774.4,6.4,6.4,0,0,0,.994.339,4.391,4.391,0,0,0,1.091.138,2.171,2.171,0,0,0,1.174-.259.89.89,0,0,0,.083-1.425,2.945,2.945,0,0,0-.884-.433q-.566-.186-1.339-.406a8.227,8.227,0,0,1-1.546-.585,2.284,2.284,0,0,1-.925-.817,2.328,2.328,0,0,1-.3-1.238A2.866,2.866,0,0,1,187,66.046a2.971,2.971,0,0,1,1.291-1.031,4.53,4.53,0,0,1,1.809-.35,5.422,5.422,0,0,1,1.3.152,6.474,6.474,0,0,1,1.153.4,6.831,6.831,0,0,1,.967.538Z" transform="translate(-95.903 -33.319)" fill="#fff"/>
    <path id="Trazado_390" data-name="Trazado 390" d="M111.232,29.762a13.074,13.074,0,0,1,3.9-4.394,9.614,9.614,0,0,1,5.717-1.716,9.807,9.807,0,0,1,5.59,1.59,13.024,13.024,0,0,1,3.938,4.227,20.407,20.407,0,0,1,1.852,4.131h8.9a5.474,5.474,0,0,1-1.569-3.838V25.447H135.24a5.5,5.5,0,0,1-1.787-10.712c-.317-.2-.635-.4-.963-.588a24.767,24.767,0,0,0-22.7-.21A26.836,26.836,0,0,0,101.45,21a33.371,33.371,0,0,0-5.335,9.8q-.486,1.4-.841,2.8h14.308a21.647,21.647,0,0,1,1.651-3.839" transform="translate(-49.091 -5.816)" fill="#fff"/>
    <path id="Trazado_391" data-name="Trazado 391" d="M130.431,93.575a13.269,13.269,0,0,1-3.854,4.395,10.717,10.717,0,0,1-11.433.125,12.557,12.557,0,0,1-3.9-4.227A21.32,21.32,0,0,1,109.3,89.32H95.058c.22.927.476,1.858.776,2.8a33.288,33.288,0,0,0,5.039,9.8,25.968,25.968,0,0,0,8.342,7.274,23.993,23.993,0,0,0,11.518,2.859A23.242,23.242,0,0,0,131.87,109.4a26.74,26.74,0,0,0,8.427-7.023,32.133,32.133,0,0,0,5.293-9.756c.371-1.1.679-2.2.936-3.3H132.217a21.8,21.8,0,0,1-1.787,4.255" transform="translate(-48.98 -46.023)" fill="#fff"/>
  </g>
</svg>
