<svg xmlns="http://www.w3.org/2000/svg" xmlns:xlink="http://www.w3.org/1999/xlink" width="22" height="23" viewBox="0 0 22 23">
  <defs>
    <clipPath id="clip-path">
      <rect id="Rectángulo_157" data-name="Rectángulo 157" width="22" height="23" transform="translate(0 -0.459)" fill="#a3a3a3"/>
    </clipPath>
  </defs>
  <g id="Grupo_378" data-name="Grupo 378" transform="translate(0 0.459)">
    <g id="Grupo_377" data-name="Grupo 377" clip-path="url(#clip-path)">
      <path id="Trazado_403" data-name="Trazado 403" d="M15.635,22.336v-3.35h-3.35V16.752h3.35V13.4h2.234v3.35h3.35v2.234h-3.35v3.35ZM2.234,20.1a2.155,2.155,0,0,1-1.578-.656A2.155,2.155,0,0,1,0,17.869V4.467A2.155,2.155,0,0,1,.656,2.889a2.155,2.155,0,0,1,1.578-.656H3.35V0H5.584V2.234h6.7V0h2.234V2.234h1.117a2.155,2.155,0,0,1,1.578.656,2.155,2.155,0,0,1,.656,1.578V11.28a7.487,7.487,0,0,0-2.234,0V8.934H2.234v8.934h7.818a7.519,7.519,0,0,0,.084,1.117,5.019,5.019,0,0,0,.307,1.117Zm0-13.4h13.4V4.467H2.234Zm0,0v0Z" transform="translate(0)" fill="#a3a3a3"/>
    </g>
  </g>
</svg>
