<svg xmlns="http://www.w3.org/2000/svg" xmlns:xlink="http://www.w3.org/1999/xlink" width="21" height="21" viewBox="0 0 21 21">
  <defs>
    <clipPath id="clip-path">
      <rect id="Rectángulo_60" data-name="Rectángulo 60" width="21" height="21" transform="translate(0.159)" fill="#a3a3a3"/>
    </clipPath>
  </defs>
  <g id="Grupo_92" data-name="Grupo 92" transform="translate(3)">
    <g id="Grupo_91" data-name="Grupo 91" transform="translate(-3.159)" clip-path="url(#clip-path)">
      <path id="Trazado_296" data-name="Trazado 296" d="M2.116,21.159a2.041,2.041,0,0,1-1.495-.621A2.041,2.041,0,0,1,0,19.043V7.406A2.041,2.041,0,0,1,.621,5.911,2.041,2.041,0,0,1,2.116,5.29h5.29V2.116A2.041,2.041,0,0,1,8.027.621,2.041,2.041,0,0,1,9.521,0h2.116a2.041,2.041,0,0,1,1.495.621,2.041,2.041,0,0,1,.621,1.495V5.29h5.29a2.12,2.12,0,0,1,2.116,2.116V19.043a2.12,2.12,0,0,1-2.116,2.116Zm0-2.116H19.043V7.406h-5.29a2.12,2.12,0,0,1-2.116,2.116H9.521A2.12,2.12,0,0,1,7.406,7.406H2.116Zm2.116-2.116h6.348v-.476a1.489,1.489,0,0,0-.252-.834,1.661,1.661,0,0,0-.7-.595,5.445,5.445,0,0,0-1.072-.357,5.591,5.591,0,0,0-2.3,0,5.445,5.445,0,0,0-1.072.357,1.661,1.661,0,0,0-.7.595,1.489,1.489,0,0,0-.252.834ZM12.7,15.34h4.232V13.753H12.7Zm-5.29-1.587a1.587,1.587,0,1,0-1.125-2.712,1.587,1.587,0,0,0,1.125,2.712m5.29-1.587h4.232V10.579H12.7ZM9.521,7.406h2.116V2.116H9.521Z" transform="translate(0 0)" fill="#a3a3a3"/>
    </g>
  </g>
</svg>
