<svg id="Grupo_96" data-name="Grupo 96" xmlns="http://www.w3.org/2000/svg" xmlns:xlink="http://www.w3.org/1999/xlink" width="21.025" height="19" viewBox="0 0 21.025 19">
  <defs>
    <clipPath id="clip-path">
      <rect id="Rectángulo_62" data-name="Rectángulo 62" width="21.025" height="19" fill="#a3a3a3"/>
    </clipPath>
  </defs>
  <g id="Grupo_95" data-name="Grupo 95" clip-path="url(#clip-path)">
    <path id="Trazado_299" data-name="Trazado 299" d="M12.075,9.725a11.2,11.2,0,0,0,2.85-2.963A5.954,5.954,0,0,0,15.95,3.55a2.078,2.078,0,0,0-.262-1.175A.827.827,0,0,0,14.975,2Q13.8,2,12.9,3.988A10.756,10.756,0,0,0,12,8.475q0,.349.013.662a4.225,4.225,0,0,0,.062.588M1,17H3v2H1Zm4,0H7v2H5Zm4,0h2v2H9Zm4,0h2v2H13Zm4,0h2v2H17ZM1.4,15,0,13.6,1.6,12,0,10.4,1.4,9,3,10.6,4.6,9,6,10.4,4.4,12,6,13.6,4.6,15,3,13.4Zm12.05-1a3.247,3.247,0,0,1-1.375-.288A2.659,2.659,0,0,1,11,12.775a12.232,12.232,0,0,1-1.288.625q-.661.275-1.362.55l-.7-1.875q.7-.25,1.338-.537t1.237-.613a9.514,9.514,0,0,1-.187-1.2q-.063-.65-.063-1.4A11.378,11.378,0,0,1,11.4,2.363,4.148,4.148,0,0,1,14.975,0,2.672,2.672,0,0,1,17.1.962a4,4,0,0,1,.825,2.688A7.741,7.741,0,0,1,16.563,7.9a13.722,13.722,0,0,1-3.788,3.775,1.279,1.279,0,0,0,.363.262.9.9,0,0,0,.387.088,2.4,2.4,0,0,0,1.513-.825A8.212,8.212,0,0,0,16.6,9.025l1.825.85A4.767,4.767,0,0,0,18.15,10.9a2.431,2.431,0,0,0,.025,1.05,2.825,2.825,0,0,0,.587-.425,5.523,5.523,0,0,0,.688-.75L21.025,12a5.612,5.612,0,0,1-1.5,1.45A2.947,2.947,0,0,1,17.95,14a1.512,1.512,0,0,1-.937-.312,2.3,2.3,0,0,1-.688-.963,5.6,5.6,0,0,1-1.425.95A3.514,3.514,0,0,1,13.45,14" fill="#a3a3a3"/>
  </g>
</svg>
