<svg xmlns="http://www.w3.org/2000/svg" xmlns:xlink="http://www.w3.org/1999/xlink" width="83" height="103" viewBox="0 0 83 103">
  <defs>
    <clipPath id="clip-path">
      <rect id="Rectángulo_41" data-name="Rectángulo 41" width="69" height="89" transform="translate(-0.256 -0.203)" fill="none"/>
    </clipPath>
    <clipPath id="clip-path-2">
      <circle id="Elipse_1" data-name="Elipse 1" cx="34.5" cy="34.5" r="34.5" transform="translate(-0.256 -0.203)" fill="none"/>
    </clipPath>
    <clipPath id="clip-path-3">
      <rect id="Rectángulo_31" data-name="Rectángulo 31" width="5.076" height="2.196" fill="none"/>
    </clipPath>
    <clipPath id="clip-path-4">
      <rect id="Rectángulo_32" data-name="Rectángulo 32" width="13.142" height="3.777" fill="none"/>
    </clipPath>
    <clipPath id="clip-path-5">
      <rect id="Rectángulo_33" data-name="Rectángulo 33" width="5.673" height="2.571" fill="none"/>
    </clipPath>
    <clipPath id="clip-path-6">
      <rect id="Rectángulo_34" data-name="Rectángulo 34" width="1.62" height="4.593" fill="none"/>
    </clipPath>
    <clipPath id="clip-path-7">
      <rect id="Rectángulo_35" data-name="Rectángulo 35" width="0.872" height="3.733" fill="none"/>
    </clipPath>
    <clipPath id="clip-path-8">
      <rect id="Rectángulo_36" data-name="Rectángulo 36" width="2.538" height="3.941" fill="none"/>
    </clipPath>
    <clipPath id="clip-path-9">
      <rect id="Rectángulo_37" data-name="Rectángulo 37" width="2.188" height="1.216" fill="none"/>
    </clipPath>
    <clipPath id="clip-path-10">
      <rect id="Rectángulo_38" data-name="Rectángulo 38" width="2.333" height="0.832" fill="none"/>
    </clipPath>
    <clipPath id="clip-path-11">
      <rect id="Rectángulo_39" data-name="Rectángulo 39" width="3.122" height="1.201" fill="none"/>
    </clipPath>
    <clipPath id="clip-path-12">
      <rect id="Rectángulo_40" data-name="Rectángulo 40" width="0.517" height="0.971" fill="none"/>
    </clipPath>
  </defs>
  <g id="Grupo_3916" data-name="Grupo 3916" transform="translate(-839 -784)">
    <rect id="Rectángulo_42" data-name="Rectángulo 42" width="83" height="89" rx="13" transform="translate(839 784)" fill="#a5d5ff"/>
    <g id="Grupo_35" data-name="Grupo 35" transform="translate(843.631 792.951)">
      <circle id="Elipse_2" data-name="Elipse 2" cx="36.5" cy="36.5" r="36.5" transform="translate(0.37 0.049)" fill="#c3e3ff"/>
      <g id="Grupo_34" data-name="Grupo 34" transform="translate(2.626 5.251)">
        <g id="Grupo_33" data-name="Grupo 33" transform="translate(0 0)" clip-path="url(#clip-path)">
          <g id="Grupo_32" data-name="Grupo 32">
            <g id="Grupo_31" data-name="Grupo 31" clip-path="url(#clip-path-2)">
              <path id="Trazado_5" data-name="Trazado 5" d="M671.795,60.949s3.543-13.783-3.514-12.679a1.028,1.028,0,0,1-.957-.379c-1.051-1.278-4.169-4.413-7.868-2.012a.993.993,0,0,1-.476.158c-.944.063-4.177.5-4.462,3.545a1.316,1.316,0,0,1-.472.906c-.533.429-1.284,1.448-.8,3.638,0,0,.212,4.68,1.282,7.114s17.269-.293,17.269-.293" transform="translate(-627.773 -42.998)" fill="#0a070c"/>
              <path id="Trazado_6" data-name="Trazado 6" d="M715.276,253.536a26.671,26.671,0,0,1-.346-10.674v0a33.956,33.956,0,0,0,.245-9.334L715,230.859a3.228,3.228,0,0,0-3.221-3.016h-9.212a3.225,3.225,0,0,0-3.225,3.225v.127a41.918,41.918,0,0,0,.576,10.974l.532,3.258c.282,2.335-.17,5.818-1.149,7.246a1.27,1.27,0,0,0,.326,1.606,10.487,10.487,0,0,0,5.209,3.1,9.913,9.913,0,0,0,2.831.238,9.323,9.323,0,0,0,5.616-1.743,7.845,7.845,0,0,0,1.991-2.332" transform="translate(-672.011 -218.686)" fill="#ed9685"/>
              <path id="Trazado_7" data-name="Trazado 7" d="M867.6,477.707a5.705,5.705,0,0,0-1.2,2.554,1.242,1.242,0,0,0,.807,1.532,2.254,2.254,0,0,0,1.075-.018,4.174,4.174,0,0,1-.693-.066c-.788-.143-1.01-.675-.9-1.412a10.511,10.511,0,0,1,.913-2.59" transform="translate(-832.712 -458.772)" fill="#c96b59"/>
              <path id="Trazado_8" data-name="Trazado 8" d="M927.623,570.873a.13.13,0,0,0,.1-.083.127.127,0,0,0-.077-.164c-.555-.2-.747.149-.755.164a.127.127,0,0,0,.054.173.13.13,0,0,0,.173-.052c.012-.019.112-.16.439-.043a.129.129,0,0,0,.066.006" transform="translate(-890.847 -547.997)" fill="#c96b59"/>
              <path id="Trazado_9" data-name="Trazado 9" d="M943.983,356.086c.052.116.228.162.311.19.8.268,1.679.019,2.491.212a6.8,6.8,0,0,0,1.405.181,2.7,2.7,0,0,0,.74-.037c.469-.129-.017-.56-.225-.738a4.082,4.082,0,0,0-1.387-.741,3.372,3.372,0,0,0-1.65-.132,3.071,3.071,0,0,0-.82.269,2.875,2.875,0,0,0-.719.439c-.068.064-.193.205-.154.337a.187.187,0,0,0,.008.021" transform="translate(-907.269 -340.839)" fill="#0a070c"/>
              <path id="Trazado_10" data-name="Trazado 10" d="M739.551,355.542c-.049.117-.223.169-.3.2-.787.292-1.678.071-2.483.289a6.8,6.8,0,0,1-1.4.225,2.7,2.7,0,0,1-.741-.014c-.472-.115,0-.56.2-.745a4.084,4.084,0,0,1,1.364-.784,3.372,3.372,0,0,1,1.645-.183,3.072,3.072,0,0,1,.828.244,2.876,2.876,0,0,1,.732.417c.07.061.2.2.164.332a.178.178,0,0,1-.007.021" transform="translate(-705.921 -340.382)" fill="#0a070c"/>
              <path id="Trazado_11" data-name="Trazado 11" d="M988.462,418.076c0,.688-.37.826-.907.826s-.933-.138-.933-.826a1.135,1.135,0,0,1,.971-1.246c.537,0,.868.558.868,1.246" transform="translate(-948.255 -400.277)" fill="#0a070c"/>
              <path id="Trazado_12" data-name="Trazado 12" d="M788.545,418.076c0,.688-.37.826-.907.826s-.933-.138-.933-.826a1.135,1.135,0,0,1,.971-1.246c.536,0,.868.558.868,1.246" transform="translate(-756.162 -400.277)" fill="#0a070c"/>
              <path id="Trazado_13" data-name="Trazado 13" d="M741.166,668.306c1.243,2.442,3.221,5.229,6.233,5.254a5.023,5.023,0,0,0,.56-.031,12.048,12.048,0,0,0,2.26-.4A5.609,5.609,0,0,0,753.7,670.4a20.824,20.824,0,0,0,1.049-2.1,13.7,13.7,0,0,1-.807,2.227,5.582,5.582,0,0,1-2.445,2.63,9.554,9.554,0,0,1-3.639.935,5.177,5.177,0,0,1-1.086-.026c-2.907-.415-4.747-3.182-5.61-5.766" transform="translate(-712.404 -641.913)" fill="#c96b59"/>
              <path id="Trazado_14" data-name="Trazado 14" d="M681.692,190.081c.065.179.082,1.09-.136,1.263a9.744,9.744,0,0,0-.729,1.938,1.568,1.568,0,0,0-.135-.386c-.041-.131-.077-.264-.109-.4a12.424,12.424,0,0,1-.259-1.867,1.9,1.9,0,0,0-.088-.491,1.112,1.112,0,0,0-.374-.454,2.7,2.7,0,0,1-.365-.33,7.938,7.938,0,0,1-.858-1.237,12.379,12.379,0,0,1-.725-1.585,9.65,9.65,0,0,0-.43-1.186.667.667,0,0,0-.142-.169l-.01-.009a1.829,1.829,0,0,0-.348-.251,2.907,2.907,0,0,0-1.7-.274,7.092,7.092,0,0,0-2.374.745,7.479,7.479,0,0,0-1.157.655c-.031.023-.06.046-.089.071h0c-.5.422-.76,1.067-1.3,1.46a3.2,3.2,0,0,1-1.177.531c-.381.085-.887-.033-1.2.233a10.954,10.954,0,0,1-1.967,1.385,2.894,2.894,0,0,0-.683.316c-.2.186-.149.444-.148.69a6.273,6.273,0,0,1-.227,1.417c-.053.225-.114.449-.185.669-.014.043-.093.189-.082.236a9.832,9.832,0,0,0-.73-1.941c-.218-.173-.2-1.084-.136-1.263a5.578,5.578,0,0,0,0-1.247c-.1-.354-.224-.8-.38-1.378a8.378,8.378,0,0,1-.284-1.153c.237-2.388,5.826-3.448,5.907-3.448s4.76.233,5.081.373,2.589.471,2.589.471l1.051.536a3.664,3.664,0,0,1,1.337-.635,4.584,4.584,0,0,1,1.587.657,14.079,14.079,0,0,1,.758,2.294c.078.208.61,2.588.2,3.615a.629.629,0,0,0,.025.147" transform="translate(-637.448 -175.235)" fill="#0a070c"/>
              <path id="Trazado_15" data-name="Trazado 15" d="M1100.568,444.035s.666-1.234,1.513-.736,1.063,3.675.14,5.262-1.909,1.4-1.909,1.4Z" transform="translate(-1057.496 -425.597)" fill="#ed9685"/>
              <path id="Trazado_16" data-name="Trazado 16" d="M1113.235,492.538a1.459,1.459,0,0,0-.962.67c-.155.237-.293.491-.134.74.136.194.392.357.444.582.064.276-.19.5-.326.736a1.274,1.274,0,0,0-.168.7.946.946,0,0,1-.064-.75c.063-.214.283-.463.215-.664-.037-.125-.195-.25-.339-.4-.332-.325-.164-.736.113-1.027a1.653,1.653,0,0,1,1.221-.586" transform="translate(-1068.455 -473.023)" fill="#c96b59"/>
              <path id="Trazado_17" data-name="Trazado 17" d="M661.087,442.8s-.671-1.22-1.518-.722-1.063,3.675-.14,5.262,1.909,1.4,1.909,1.4Z" transform="translate(-633.289 -424.426)" fill="#ed9685"/>
              <path id="Trazado_18" data-name="Trazado 18" d="M670.416,492.538a1.459,1.459,0,0,1,.962.67c.155.237.293.491.134.74-.137.194-.392.357-.444.582-.064.276.19.5.326.736a1.272,1.272,0,0,1,.168.7.946.946,0,0,0,.064-.75c-.063-.214-.283-.463-.215-.664.037-.125.195-.25.339-.4.332-.325.164-.736-.112-1.027a1.654,1.654,0,0,0-1.221-.586" transform="translate(-644.422 -473.023)" fill="#c96b59"/>
              <g id="Grupo_3" data-name="Grupo 3" transform="translate(25.47 11.408)" opacity="0.2">
                <g id="Grupo_2" data-name="Grupo 2">
                  <g id="Grupo_1" data-name="Grupo 1" clip-path="url(#clip-path-3)">
                    <path id="Trazado_19" data-name="Trazado 19" d="M662.12,287.014a3.122,3.122,0,0,1-3.432.029l.125.028a1.358,1.358,0,0,1-1.325-.441,2.146,2.146,0,0,1-.444-1.277,2.546,2.546,0,0,0,.589,1.142,1.2,1.2,0,0,0,1.108.312l.069-.019.056.047c.883.72,2.239.466,3.254.179" transform="translate(-657.044 -285.353)" fill="#a3acaf"/>
                  </g>
                </g>
              </g>
              <g id="Grupo_6" data-name="Grupo 6" transform="translate(26.752 6.063)" opacity="0.2">
                <g id="Grupo_5" data-name="Grupo 5">
                  <g id="Grupo_4" data-name="Grupo 4" clip-path="url(#clip-path-4)">
                    <path id="Trazado_20" data-name="Trazado 20" d="M702.929,151.617a2.433,2.433,0,0,0-1.772-2.14,5.1,5.1,0,0,0-2.886,0,4.057,4.057,0,0,0-2.094,1.546,3.939,3.939,0,0,1-2,1.374,3.872,3.872,0,0,1-2.143.022,3.464,3.464,0,0,1-1.929-1.546,5.4,5.4,0,0,1-.3-.57,5.2,5.2,0,0,0,1.011,1.132,3.166,3.166,0,0,0,1.312.636,3.7,3.7,0,0,0,2.759-.564,4.029,4.029,0,0,0,1.015-1.028,4.332,4.332,0,0,1,2.221-1.516,4.556,4.556,0,0,1,4.086.737,2.351,2.351,0,0,1,.726,1.921" transform="translate(-689.799 -148.78)" fill="#a3acaf"/>
                  </g>
                </g>
              </g>
              <path id="Trazado_21" data-name="Trazado 21" d="M1025.341,247.693l-.01-.009c.013,0,.016,0,.01.009" transform="translate(-985.449 -237.749)" fill="#301608"/>
              <g id="Grupo_9" data-name="Grupo 9" transform="translate(34.21 8.309)" opacity="0.2">
                <g id="Grupo_8" data-name="Grupo 8">
                  <g id="Grupo_7" data-name="Grupo 7" clip-path="url(#clip-path-5)">
                    <path id="Trazado_22" data-name="Trazado 22" d="M886.04,207.787a1.823,1.823,0,0,0-.348-.251,2.907,2.907,0,0,0-1.7-.274,7.1,7.1,0,0,0-2.374.745,7.491,7.491,0,0,0-1.157.655c-.031.023-.06.046-.089.071,5.417-5.168,5.673-.945,5.673-.945" transform="translate(-880.367 -206.162)" fill="#a3acaf"/>
                  </g>
                </g>
              </g>
              <g id="Grupo_12" data-name="Grupo 12" transform="translate(41.551 9.627)" opacity="0.2">
                <g id="Grupo_11" data-name="Grupo 11">
                  <g id="Grupo_10" data-name="Grupo 10" clip-path="url(#clip-path-6)">
                    <path id="Trazado_23" data-name="Trazado 23" d="M1069.534,244.45c-.079-1.409-.2-3.823-1.561-4.593a1.644,1.644,0,0,1,.553.329c1.03.941,1.177,2.953,1.008,4.264" transform="translate(-1067.973 -239.857)" fill="#a3acaf"/>
                  </g>
                </g>
              </g>
              <g id="Grupo_15" data-name="Grupo 15" transform="translate(40.074 6.2)" opacity="0.2">
                <g id="Grupo_14" data-name="Grupo 14">
                  <g id="Grupo_13" data-name="Grupo 13" clip-path="url(#clip-path-7)">
                    <path id="Trazado_24" data-name="Trazado 24" d="M1030.35,156.011a1.928,1.928,0,0,0,.565-1.321,4,4,0,0,0-.306-.938c-.129-.351-.52-1.132-.35-1.475a.849.849,0,0,0,.088.484c.061.156.135.308.206.46.148.307.3.614.415.937a1.354,1.354,0,0,1,.027,1.049,1.966,1.966,0,0,1-.645.8" transform="translate(-1030.217 -152.278)" fill="#a3acaf"/>
                  </g>
                </g>
              </g>
              <g id="Grupo_18" data-name="Grupo 18" transform="translate(41.393 6.961)" opacity="0.2">
                <g id="Grupo_17" data-name="Grupo 17">
                  <g id="Grupo_16" data-name="Grupo 16" clip-path="url(#clip-path-8)">
                    <path id="Trazado_25" data-name="Trazado 25" d="M1063.927,171.726a2.775,2.775,0,0,1,2.049,1.44,4.325,4.325,0,0,1,.467,2.5,8.389,8.389,0,0,0-.188-1.25,3.462,3.462,0,0,0-2.328-2.691" transform="translate(-1063.927 -171.726)" fill="#a3acaf"/>
                  </g>
                </g>
              </g>
              <g id="Grupo_21" data-name="Grupo 21" transform="translate(30.71 10.298)" opacity="0.2">
                <g id="Grupo_20" data-name="Grupo 20">
                  <g id="Grupo_19" data-name="Grupo 19" clip-path="url(#clip-path-9)">
                    <path id="Trazado_26" data-name="Trazado 26" d="M793.133,257c-.314.67-1.094,1.425-1.893,1.163a1,1,0,0,1-.294-.171,1.627,1.627,0,0,0,.316.083c.762.091,1.375-.578,1.871-1.074" transform="translate(-790.945 -256.997)" fill="#a3acaf"/>
                  </g>
                </g>
              </g>
              <g id="Grupo_24" data-name="Grupo 24" transform="translate(35.432 4.194)" opacity="0.2">
                <g id="Grupo_23" data-name="Grupo 23">
                  <g id="Grupo_22" data-name="Grupo 22" clip-path="url(#clip-path-10)">
                    <path id="Trazado_27" data-name="Trazado 27" d="M911.6,101.269c.66-.333,1.74-.447,2.208.253a1,1,0,0,1,.126.316,1.628,1.628,0,0,0-.2-.26c-.544-.541-1.439-.393-2.135-.309" transform="translate(-911.598 -101.007)" fill="#a3acaf"/>
                  </g>
                </g>
              </g>
              <g id="Grupo_27" data-name="Grupo 27" transform="translate(28.646 5.717)" opacity="0.2">
                <g id="Grupo_26" data-name="Grupo 26">
                  <g id="Grupo_25" data-name="Grupo 25" clip-path="url(#clip-path-11)">
                    <path id="Trazado_28" data-name="Trazado 28" d="M741.327,141.026c-1.05.287-2.665.029-3.122-1.092a3.148,3.148,0,0,0,.319.288,5.737,5.737,0,0,0,2.8.8" transform="translate(-738.205 -139.934)" fill="#a3acaf"/>
                  </g>
                </g>
              </g>
              <path id="Trazado_29" data-name="Trazado 29" d="M865.548,617.266a2.68,2.68,0,0,1-4.232.684,2.216,2.216,0,0,1-.317-.386,8.945,8.945,0,0,0,1.757.358,5.944,5.944,0,0,0,2.792-.656" transform="translate(-827.547 -592.87)" fill="#fff"/>
              <path id="Trazado_30" data-name="Trazado 30" d="M1085.858,885.469a.33.33,0,0,0,.377-.244c.011-.043,1.1-4.351,1.82-8.828a43.491,43.491,0,0,0,.649-6.491c.007-2.215-.361-3.531-1.123-4.023a.33.33,0,0,0-.357.556c.378.245.828,1.044.821,3.465a42.869,42.869,0,0,1-.641,6.387c-.718,4.449-1.8,8.729-1.808,8.771a.331.331,0,0,0,.239.4l.024.005" transform="translate(-1043.344 -831.707)" fill="#1a1a1a"/>
              <path id="Trazado_31" data-name="Trazado 31" d="M718.738,936.421s3.584,2.978,6.727-.172l1.4,15.407s-3.388,10.189-3.633,10.632-4.689,6.177-5.131,5.513-3.29-6.744-3.118-8.885-.737-10.952.491-12.995,3.265-9.5,3.265-9.5" transform="translate(-687.087 -899.371)" fill="#699681"/>
              <path id="Trazado_32" data-name="Trazado 32" d="M158.832,812.74q-.019.269-.057.529c-.562,3.964-4.006,6.129-7.1,7.5-1.427.629-2.781,1.09-3.747,1.479,0,0,.1,3.6.243,7.225h-40c.039-.3.076-.574.11-.828.2-1.5.333-2.295.431-3.425.027-.311.051-.647.074-1.03.027-.436.051-.934.075-1.525.016-.4.043-1.238.043-1.24a11.7,11.7,0,0,1-5.477-1.214,7.4,7.4,0,0,1-1.827-1.334l-.032-.032-.052-.054c-.052-.054-.1-.11-.153-.166a6.623,6.623,0,0,1-1.556-3.258c-.014-.071-.026-.143-.038-.215,0-.027-.007-.054-.01-.081q-.04-.315-.074-.63-.042-.387-.075-.776-.028-.323-.049-.647a38.759,38.759,0,0,1,.009-5.121,43.272,43.272,0,0,1,.747-5.658,26.784,26.784,0,0,1,.746-3.01q.164-.506.317-1.015l2.707-9.571a15.924,15.924,0,0,1,10.283-10.549l.1-.032,5.187-1.7.79-.259,1.509-.494a1.651,1.651,0,0,0,.959-.827c.022-.044.042-.089.061-.135.032-.083.067-.169.1-.26.025-.064.051-.13.078-.2l.007-.017.014-.037a1.476,1.476,0,0,1,.01-.306,2.027,2.027,0,0,1,.056-.273l.011-.038c0-.007,0-.014.006-.02a2.81,2.81,0,0,1,.1-.288c.042-.1.089-.2.139-.3s.1-.185.155-.275.1-.165.157-.245.1-.138.146-.205.079-.106.12-.157c.064-.081.1-.039.115.021a.467.467,0,0,1,.014.072,2.32,2.32,0,0,0,.079.392,3.169,3.169,0,0,0,.235.578,4.234,4.234,0,0,0,.859,1.053,8.606,8.606,0,0,0,1.155.928,4.072,4.072,0,0,1,.868.8,4.118,4.118,0,0,1,.879,3.173l-.009.063a4.1,4.1,0,0,1-.265.94l-.024.057a1.907,1.907,0,0,1,1.766,1.757,21.772,21.772,0,0,1-.906,7.768c-1.645,5.587-.123,15.161-.123,15.161,2.418-4.978,2.31-15.16,2.108-19.906a2.788,2.788,0,0,1,2.41-2.885l-.084-1.015-.054-.652-.025-.3a5.232,5.232,0,0,1-.01-.738l0-.072a5.228,5.228,0,0,1,2.342-4c1.734-1.139,2.747-1.905,3.044-3.056l0-.016a16.739,16.739,0,0,1,1.158,2.813,2.283,2.283,0,0,1,.113.455,0,0,0,0,0,0,0c0,.023.006.047.009.069.005.04.011.08.016.119,0,.022.005.044.007.065s.008.072.011.106a.008.008,0,0,1,0,0c.005.052.01.1.014.152a1.2,1.2,0,0,0,.139.464l0,0a1.124,1.124,0,0,0,.119.18,1.211,1.211,0,0,0,.586.4l.281.089.02.006.374.12.024.008c2.654.863,8.1,2.8,10.474,4.846a9.662,9.662,0,0,1,2.135,3.564q.141.349.28.723c.3.8.583,1.674.862,2.62.031.106.062.213.093.32q.1.337.193.687c.293,1.069.574,2.212.842,3.413q.16.713.312,1.452c.64,3.09,1.192,6.49,1.624,9.934q.042.332.082.665.1.815.188,1.631c.01.091.02.182.03.273.005.049.011.1.016.146q.073.682.139,1.361.011.109.021.218c.008.085.016.17.024.255q.052.55.1,1.1c.006.069.012.137.018.206q.033.387.063.771a8.768,8.768,0,0,1,.006,1.344" transform="translate(-95.825 -741.533)" fill="#fafcfb"/>
              <path id="Trazado_33" data-name="Trazado 33" d="M941.928,1173.056a7.394,7.394,0,0,0-1.193,3.345,15.079,15.079,0,0,0-.047,3.914c.16,1.462.471,3.057.512,4.53,0,.359.006.764-.026,1.122-.009.092-.026.283-.035.375-.027.187-.053.374-.086.56l-.081.37a9.206,9.206,0,0,1-.477,1.419c-.141.339-.262.614-.291.673-.514,1.038-2.279-1.691-6.031,2.2a26.446,26.446,0,0,1-4.559,4.021c-1.633,1.255-5.762,1.346-5.727,1.578.039.26,4.375.568,6.562.057,6.214-1.451,9.062-7.674,9.23-8.079.132-.317.259-.671.259-.671a9.4,9.4,0,0,0,.406-1.344c.059-.272.106-.585.138-.858a11.06,11.06,0,0,0,.045-1.227c-.037-1.922-.484-3.84-.493-5.777,0-2.009.439-4.735,1.9-6.207" transform="translate(-887.974 -1126.911)" fill="#d5d1d1"/>
              <path id="Trazado_34" data-name="Trazado 34" d="M806.527,1619.342c0,.372-.025.744-.063,1.114q-.028.274-.068.546a13.9,13.9,0,0,1-.469,2.02c-.007.024-.014.049-.021.073h0c-.006.021-.013.042-.018.063q-.044.146-.089.292l-.116.375c-.042.138-.084.275-.126.413q-.074.244-.144.488c-.086.3-.166.6-.235.908,0,.022-.009.044-.014.065q-.045.207-.08.416a9.806,9.806,0,0,0-.141,1.486v.05c0,.059,0,.118,0,.177v0q0,.1,0,.2a28.469,28.469,0,0,1-.484,5.054c-.108.589-.225,1.174-.32,1.761h-.675c.1-.631.218-1.257.331-1.882.161-.888.289-1.775.37-2.674.072-.789.1-1.561.116-2.353,0-.084,0-.168.006-.252h0c0-.034,0-.068,0-.1,0,0,0-.009,0-.013a10.15,10.15,0,0,1,.132-1.36l0-.027q.033-.2.074-.4a15.546,15.546,0,0,1,.416-1.533c.031-.1.061-.191.092-.287h0q.066-.2.133-.4c.032-.1.064-.194.1-.291.005-.014.009-.027.014-.042l.024-.073c.1-.313.2-.626.294-.941a12.109,12.109,0,0,0,.381-1.789q.073-.539.1-1.082a12.2,12.2,0,0,0-.022-1.47h0q-.01-.146-.025-.292c-.012-.117-.026-.232-.041-.348l-.009-.069c-.02-.153-.043-.306-.068-.458-.162-1-.407-1.99-.595-2.987h0a10.948,10.948,0,0,1-.2-3.559,11.43,11.43,0,0,0,.385,3.345h0c.254,1.063.574,2.117.79,3.188q.049.24.09.481c0,.023.008.046.012.068h0c.035.21.064.421.087.633a.046.046,0,0,1,0,.008h0a11.764,11.764,0,0,1,.073,1.457" transform="translate(-772.26 -1546.91)" fill="#d5d1d1"/>
              <path id="Trazado_35" data-name="Trazado 35" d="M322.174,1159.017a21.34,21.34,0,0,0-.332,3.364,31.425,31.425,0,0,0,.143,3.921c.113,1.137.366,2.223.591,3.342a9.161,9.161,0,0,0,1.055,3.267c.293.455.506.918.789,1.379a31.135,31.135,0,0,1,1.953,3.611c.648,1.458.338,4.5,10.419,5.791a7.924,7.924,0,0,1-6.769.7,10.719,10.719,0,0,1-4.579-3.957,19.254,19.254,0,0,1-2.728-5.63,36.426,36.426,0,0,1-1.394-7.091,18.719,18.719,0,0,1,.853-8.694" transform="translate(-308.849 -1113.421)" fill="#d5d1d1"/>
              <path id="Trazado_36" data-name="Trazado 36" d="M932.137,1095.078c-.027.491-.309.874-.63.857s-.561-.429-.534-.92.309-.874.63-.857.561.43.534.92" transform="translate(-894.781 -1051.099)" fill="#d5d1d1"/>
              <path id="Trazado_37" data-name="Trazado 37" d="M824.86,1019.6c-.027.491-.309.874-.63.857s-.561-.43-.534-.92.309-.874.631-.857.561.429.534.92" transform="translate(-791.701 -978.58)" fill="#d5d1d1"/>
              <path id="Trazado_38" data-name="Trazado 38" d="M790.982,1247.911c-.027.49-.309.874-.63.857s-.561-.43-.534-.92.309-.874.63-.857.561.43.534.92" transform="translate(-759.149 -1197.952)" fill="#d5d1d1"/>
              <path id="Trazado_39" data-name="Trazado 39" d="M918.963,1323.385c-.027.491-.309.874-.63.857s-.561-.429-.534-.92.309-.874.63-.857.561.429.534.92" transform="translate(-882.122 -1270.473)" fill="#d5d1d1"/>
              <path id="Trazado_40" data-name="Trazado 40" d="M878.812,1572.446c-.027.491-.309.874-.63.857s-.561-.43-.534-.92.309-.874.63-.857.561.429.534.92" transform="translate(-843.542 -1509.787)" fill="#d5d1d1"/>
              <path id="Trazado_41" data-name="Trazado 41" d="M785.963,1509.552c-.027.491-.309.874-.63.857s-.561-.429-.534-.92.309-.874.63-.857.561.429.534.92" transform="translate(-754.327 -1449.354)" fill="#d5d1d1"/>
              <path id="Trazado_42" data-name="Trazado 42" d="M816.076,1741c-.026.491-.309.874-.63.857s-.561-.429-.534-.92.309-.874.63-.857.561.429.534.92" transform="translate(-783.261 -1671.748)" fill="#d5d1d1"/>
              <path id="Trazado_43" data-name="Trazado 43" d="M592.5,820.921l-.023,0a.516.516,0,0,1-.585-.437,11.821,11.821,0,0,1,.172-3.733,9.729,9.729,0,0,1,1.256-3.22A8.267,8.267,0,0,1,596.3,810.7a.517.517,0,0,1,.507.9,7.6,7.6,0,0,0-3.731,5.365,10.885,10.885,0,0,0-.162,3.375.516.516,0,0,1-.413.582" transform="translate(-568.903 -778.669)" fill="#092a45"/>
              <path id="Trazado_44" data-name="Trazado 44" d="M658.744,803.237l-2.126,4.115,3.5-3.429Z" transform="translate(-631.164 -771.564)" fill="#fff"/>
              <path id="Trazado_45" data-name="Trazado 45" d="M697.6,864.885c-2.119-.143-4.663-1.431-5.209-3.645a3.309,3.309,0,0,1-.082-1.093,5.528,5.528,0,0,0,.268.909c.836,2.083,3.044,3.088,5.022,3.829" transform="translate(-665.443 -826.247)" fill="#d5d1d1"/>
              <path id="Trazado_46" data-name="Trazado 46" d="M514.9,1252.105a2.826,2.826,0,0,1-1.088-.219c-1.692-.7-2.919-3.087-3.888-7.094-.7-2.9-1.061-5.565-1.071-5.677-.024-.27.115-.2.384-.227s.4.091.424.361a56.866,56.866,0,0,0,1.034,5.627c.878,3.626,2.064,5.842,3.429,6.406a2.767,2.767,0,0,0,2.934-.693c.207-.175.437-.3.611-.1s.21.212,0,.387a4.394,4.394,0,0,1-2.773,1.225" transform="translate(-489.182 -1190.164)" fill="#5e5e5c"/>
              <path id="Trazado_47" data-name="Trazado 47" d="M471.621,1249.37a4.394,4.394,0,0,1-2.773-1.225.356.356,0,0,1-.028-.57c.175-.207.514-.111.721.064,1.084.917,2.017,1.195,2.855.849,1.365-.565,2.551-2.78,3.429-6.406a46.886,46.886,0,0,0,.965-5.6c.024-.27.193-.531.463-.507s.417.115.393.385a40.858,40.858,0,0,1-.927,5.7c-.969,4.007-2.318,6.394-4.01,7.094a2.824,2.824,0,0,1-1.088.219" transform="translate(-450.592 -1187.361)" fill="#5e5e5c"/>
              <path id="Trazado_48" data-name="Trazado 48" d="M512.119,1058.866h-.034a.516.516,0,0,1-.481-.549c0-.057.279-4.68-1.361-6.367a1.781,1.781,0,0,0-1.417-.565,2.03,2.03,0,0,0-1.514.722c-1.528,1.736-1.194,5.85-1.19,5.891a.516.516,0,1,1-1.027.089c-.016-.187-.376-4.595,1.443-6.664a3.049,3.049,0,0,1,2.249-1.072,2.8,2.8,0,0,1,2.2.877,7.343,7.343,0,0,1,1.58,4.392,18.352,18.352,0,0,1,.07,2.763.516.516,0,0,1-.514.483" transform="translate(-485.532 -1009.005)" fill="#092a45"/>
              <path id="Trazado_49" data-name="Trazado 49" d="M719.042,1518.316a.6.6,0,0,0-.681-1,2.106,2.106,0,0,0-.457.814.233.233,0,0,0,.215.315,2.1,2.1,0,0,0,.922-.133" transform="translate(-690.038 -1457.602)" fill="#092a45"/>
              <path id="Trazado_50" data-name="Trazado 50" d="M458.721,1521.289a.6.6,0,0,1,.681-1,2.1,2.1,0,0,1,.457.814.233.233,0,0,1-.215.315,2.1,2.1,0,0,1-.923-.133" transform="translate(-440.76 -1460.458)" fill="#092a45"/>
              <path id="Trazado_51" data-name="Trazado 51" d="M1083.378,881.728a.516.516,0,0,1-.5-.66c.013-.044,1.276-4.475,2.05-8.993a32.7,32.7,0,0,0,.592-6.367,6.956,6.956,0,0,0-.35-2.153,1.293,1.293,0,0,0-.734-.865.517.517,0,0,1,.314-.984,2.271,2.271,0,0,1,1.383,1.481,7.953,7.953,0,0,1,.417,2.487,33.706,33.706,0,0,1-.608,6.584c-.784,4.573-2.061,9.052-2.074,9.1a.516.516,0,0,1-.5.374" transform="translate(-1040.729 -827.72)" fill="#092a45"/>
              <path id="Trazado_52" data-name="Trazado 52" d="M1108.241,853.611a10.555,10.555,0,0,0-.145-1.526c-.1-.3-.518.172-.518.172a1.731,1.731,0,0,0-.049.665c.074.148-.2.714-.2.714Z" transform="translate(-1064.242 -818.407)" fill="#fff"/>
              <path id="Trazado_53" data-name="Trazado 53" d="M968.692,891.595a6.99,6.99,0,0,1-3.286,4.557l-.319.174c-.046.023-.15.07-.2.093a6.387,6.387,0,0,1-.948.354,6.46,6.46,0,0,1-1.272.216c-.189.016-.38.009-.569.009a9.1,9.1,0,0,0,3.423-1.443,10.174,10.174,0,0,0,3.169-3.96" transform="translate(-924.692 -856.464)" fill="#d5d1d1"/>
              <path id="Trazado_54" data-name="Trazado 54" d="M1001.123,1348.97a3.068,3.068,0,1,0,3.554-2.5,3.075,3.075,0,0,0-3.554,2.5" transform="translate(-962.143 -1293.498)" fill="#5e5e5c"/>
              <path id="Trazado_55" data-name="Trazado 55" d="M1044.552,1395.05a1.378,1.378,0,1,0,1.56-.967,1.3,1.3,0,0,0-1.56.967" transform="translate(-1003.901 -1339.266)" fill="#fff"/>
              <path id="Trazado_56" data-name="Trazado 56" d="M171.17,1474.813h-.023c-.332.028-7.583.684-9.033,5.591-1.484,5.021,3.108,2.557,5.712,1.829s5.454,3.995,14.922,2.277c5.422-.984,10.871-2.187,14.538-3.037a13.93,13.93,0,0,0,7.421-4.491,1.338,1.338,0,0,1,.639-.411,2.971,2.971,0,0,0,1.018-.5.929.929,0,0,1,.766-.2,4.6,4.6,0,0,0,1.522.061,1.489,1.489,0,0,1,.951.164,11.2,11.2,0,0,0,3.013,1.2.634.634,0,0,0,.442-1.162c-1.323-.834-3.5-2.2-3.622-2.2-.068,0-.483-.042-.952-.091a.252.252,0,0,1-.03-.5l.538-.124a1.953,1.953,0,0,1,1.469.246,11.154,11.154,0,0,0,3.1,1.424.634.634,0,0,0,.561-1.088c-.618-.562-1.338-1.227-1.374-1.3-.064-.136-3-1.676-3.116-1.7a5.223,5.223,0,0,0-.552-.012.252.252,0,0,1-.144-.459l.255-.175a1.3,1.3,0,0,1,1.11-.173,8.378,8.378,0,0,0,1.872.389,1.343,1.343,0,0,1,.589.156,4.2,4.2,0,0,0,1.081.4.634.634,0,0,0,.561-1.08l-.781-.747a1.473,1.473,0,0,0-.622-.355l-2.146-.6a5.128,5.128,0,0,0-3.518.279,2.645,2.645,0,0,1,.871-1.261,10.669,10.669,0,0,0,.972-.849,3.8,3.8,0,0,1,.476-.425,5.079,5.079,0,0,0,1.035-1.013.634.634,0,0,0-.852-.907l-2.888,1.812a4.849,4.849,0,0,0-1.72,1.86l-1.136,2.173a5.939,5.939,0,0,1-1.242,1.619,40.026,40.026,0,0,0-2.825,2.855,13.98,13.98,0,0,1-1.995,1.865l-.058.045a3.646,3.646,0,0,1-1.885.749,5.133,5.133,0,0,0-1.145.237,4.186,4.186,0,0,1-1.429.221l-9.623-.24a19.973,19.973,0,0,1-5.073-.788,35.737,35.737,0,0,0-7.648-1.568" transform="translate(-155.734 -1406.346)" fill="#d5d1d1"/>
              <path id="Trazado_57" data-name="Trazado 57" d="M274.817,1534.443a12.869,12.869,0,0,0-2.671-1.925c-1.11-.531-1.555-1.1-1.459-1.7a.234.234,0,0,1,.331-.174,16.411,16.411,0,0,0,1.884.809c0-.079-3.11-2.092-2.758-3.612a.235.235,0,0,1,.364-.141l2.125,1.492s-2.11-1.676-2.071-3.082a.235.235,0,0,1,.367-.188l3.372,2.31s-1.028-1.513-.509-2.535a.234.234,0,0,1,.408-.012l1.794,2.974a3.853,3.853,0,0,1,.35.752l1.832,5.39Z" transform="translate(-259.787 -1465.633)" fill="#d5d1d1"/>
              <path id="Trazado_58" data-name="Trazado 58" d="M207.292,1445.033a1.044,1.044,0,0,0-.517-.138,8.507,8.507,0,0,1-2.018-.423,1.046,1.046,0,0,0-.9.137l-1.039.715s1.268-.028,1.381,0,3.052,1.568,3.116,1.7c.03.063.523.525,1.04,1l.144.131c.256.234.508.462.7.639a.382.382,0,0,1,.039.527.373.373,0,0,1-.17.117.409.409,0,0,1-.048.013c-1.112.234-3.1-.9-4.081-1.511a1.7,1.7,0,0,0-1.284-.217l-2.093.482s2.268.252,2.436.252c.111,0,2.062,1.214,3.393,2.052l.172.108.716.452a.381.381,0,0,1-.02.658c-.94.514-3.211-.623-4.165-1.147a1.229,1.229,0,0,0-.819-.136,4.5,4.5,0,0,1-1.584-.05.927.927,0,0,0-.766.2,3.043,3.043,0,0,1-1.075.511,1.087,1.087,0,0,0-.531.336l-1.96,2.28a4.925,4.925,0,0,1-2.583,1.578c-.939.226-2.263.54-3.852.9-3.624.83-8.631,1.92-13.614,2.824-9.468,1.718-12.654-.738-15.258-.009s-6.86.924-5.376-4.1,9.044-5.591,9.044-5.591a35.749,35.749,0,0,1,7.687,1.577,19.728,19.728,0,0,0,5.019.78l9.65.241a2.788,2.788,0,0,0,1.175-.032c.413-.138.829-.088,1.44-.274a5.726,5.726,0,0,0,1.845-.9l.059-.045a13.987,13.987,0,0,0,1.994-1.865,40,40,0,0,1,2.855-2.883,5.685,5.685,0,0,0,1.191-1.552l1.188-2.272a4.6,4.6,0,0,1,1.63-1.764l2.474-1.552.164-.1.442-.277c.184-.115.474-.4.7-.291.32.15.333.678.237.959a3,3,0,0,1-1.265,1.344,2.6,2.6,0,0,0-.448.4,10.808,10.808,0,0,1-1.041.91,2.4,2.4,0,0,0-.8,1.147l-.023.073a5.13,5.13,0,0,1,3.518-.279l2.207.617a1.218,1.218,0,0,1,.516.294l.506.485.135.129c.278.266,1.269,1.1.557,1.476-.511.268-1.358-.253-1.779-.482q-.135-.074-.269-.151" transform="translate(-150.493 -1381.574)" fill="#ed9685"/>
              <path id="Trazado_59" data-name="Trazado 59" d="M292.18,1523.677l-3.36-.36s-1.525-1.073-2.671-1.925c-1.843-1.37-1.269-1.939-1.129-1.873.2.094.5.233.8.369l.193.088a4.383,4.383,0,0,0,.891.352c0-.039-.135-.117-.16-.137-.137-.106-.276-.211-.412-.319a6.308,6.308,0,0,1-1.5-1.5,2.7,2.7,0,0,1-.526-1.3c0-.071.05-.54.226-.462a4.706,4.706,0,0,1,.7.48q.7.488,1.4.983a6.757,6.757,0,0,1-1.122-1.106c-1.446-1.671-.787-2.2-.6-2.156a1.629,1.629,0,0,1,.539.324c.63.45,1.267.891,1.906,1.328a6.656,6.656,0,0,1,.949.651,3.573,3.573,0,0,1-.557-2.427c.056-.179.372-.261.457-.12l.558.925.092.152,1.144,1.9a3.871,3.871,0,0,1,.349.752Z" transform="translate(-273.426 -1454.983)" fill="#ed9685"/>
              <path id="Trazado_60" data-name="Trazado 60" d="M386.307,1724.81a.129.129,0,0,1-.03,0,16.141,16.141,0,0,0-3.716-.429.135.135,0,1,1-.026-.269,16.015,16.015,0,0,1,3.8.434.135.135,0,0,1-.03.267" transform="translate(-367.688 -1656.38)" fill="#8d3e29"/>
              <path id="Trazado_61" data-name="Trazado 61" d="M349.867,1662.371a.134.134,0,0,1-.1-.04l-.806-.837-1.765-1.041a.107.107,0,0,1-.036-.158.137.137,0,0,1,.176-.032l1.78,1.05a.125.125,0,0,1,.026.021l.817.849a.106.106,0,0,1-.013.161.136.136,0,0,1-.083.028" transform="translate(-333.799 -1595.035)" fill="#c96b59"/>
              <path id="Trazado_62" data-name="Trazado 62" d="M344.4,1606.869a.133.133,0,0,1-.119-.071l-.958-1.842-2.991-2.243a.127.127,0,0,1-.024-.181.135.135,0,0,1,.186-.024l3.015,2.261a.129.129,0,0,1,.037.044l.972,1.868a.128.128,0,0,1-.058.174.133.133,0,0,1-.06.014" transform="translate(-327.202 -1539.532)" fill="#c96b59"/>
              <path id="Trazado_63" data-name="Trazado 63" d="M384.929,1580.077a.133.133,0,0,1-.094-.039l-1.876-1.874a.121.121,0,0,1,0-.177.135.135,0,0,1,.184,0l1.877,1.874a.121.121,0,0,1,0,.177.133.133,0,0,1-.09.035" transform="translate(-368.178 -1515.964)" fill="#c96b59"/>
              <path id="Trazado_64" data-name="Trazado 64" d="M1230.649,1563.072a.135.135,0,0,1-.078-.246l3.36-2.38a.135.135,0,0,1,.156.221l-3.36,2.38a.135.135,0,0,1-.078.025" transform="translate(-1182.603 -1499.117)" fill="#c96b59"/>
              <path id="Trazado_65" data-name="Trazado 65" d="M1247.107,1622.384a.135.135,0,0,1,0-.271,17.9,17.9,0,0,0,3.591-.861.135.135,0,0,1,.088.256,17.745,17.745,0,0,1-3.673.875h0" transform="translate(-1198.417 -1557.561)" fill="#c96b59"/>
              <path id="Trazado_66" data-name="Trazado 66" d="M1257.05,1685.6l-.025,0-2.072-.392a.135.135,0,1,1,.05-.266l2.072.392a.135.135,0,0,1-.025.268" transform="translate(-1205.979 -1618.757)" fill="#c96b59"/>
              <g id="Grupo_30" data-name="Grupo 30" transform="translate(50.213 67.855)" opacity="0.4">
                <g id="Grupo_29" data-name="Grupo 29">
                  <g id="Grupo_28" data-name="Grupo 28" clip-path="url(#clip-path-12)">
                    <path id="Trazado_67" data-name="Trazado 67" d="M1289.7,1728.826a.135.135,0,0,1-.1-.04.987.987,0,0,1-.278-.819.135.135,0,0,1,.267.046.712.712,0,0,0,.2.582.135.135,0,0,1-.1.231" transform="translate(-1289.321 -1727.856)" fill="#c96b59"/>
                  </g>
                </g>
              </g>
              <path id="Trazado_68" data-name="Trazado 68" d="M1243.221,1752.414a.134.134,0,0,1-.05-.01c-.035-.014-.349-.155-.5-.765a.135.135,0,0,1,.263-.066c.118.472.337.578.339.579a.135.135,0,0,1-.05.261" transform="translate(-1194.278 -1682.692)" fill="#c96b59"/>
              <path id="Trazado_69" data-name="Trazado 69" d="M182.462,1729.112c-3.661.885-8.792.12-13.826,1.084-9.563,1.832-12.781-.787-15.412-.01s-6.929.986-5.43-4.37,9.135-5.963,9.135-5.963a34.063,34.063,0,0,1,7.764,1.613,18.961,18.961,0,0,0,5.069.832l9.952-.326a5.375,5.375,0,0,0,1.476-.12c.016,0-.175.662-.178.678-.084.358.146,4.457,1.449,6.583" transform="translate(-141.954 -1652.311)" fill="#fff"/>
              <path id="Trazado_70" data-name="Trazado 70" d="M988.495,1762.191a1.267,1.267,0,0,0-.846.931c-.058.437-.663.1-.663.1a9.5,9.5,0,0,1,.307-1.268,7.709,7.709,0,0,1,.859-.035Z" transform="translate(-948.604 -1692.729)" fill="#fff"/>
              <path id="Trazado_71" data-name="Trazado 71" d="M896.319,700.1a2.737,2.737,0,0,0-1.258-.144,6.971,6.971,0,0,0-.767.144,2.053,2.053,0,0,1,.226-.149,1.814,1.814,0,0,1,.788-.211,1.393,1.393,0,0,1,1.011.36" transform="translate(-859.54 -672.119)" fill="#c96b59"/>
            </g>
          </g>
        </g>
      </g>
      <g id="Elipse_3" data-name="Elipse 3" transform="translate(0.37 0.049)" fill="none" stroke="#81c5ff" stroke-width="4">
        <circle cx="37" cy="37" r="37" stroke="none"/>
        <circle cx="37" cy="37" r="35" fill="none"/>
      </g>
    </g>
  </g>
</svg>
