<?xml version="1.0" encoding="UTF-8"?>
<svg xmlns="http://www.w3.org/2000/svg" version="1.1" viewBox="0 0 45 45">
  <defs>
    <style>
      .cls-1 {
        fill: none;
      }

      .cls-2 {
        fill: #93c4fc;
      }
    </style>
  </defs>
  <!-- Generator: Adobe Illustrator 28.6.0, SVG Export Plug-In . SVG Version: 1.2.0 Build 709)  -->
  <g>
    <g id="Capa_2">
      <g>
        <rect class="cls-1" width="45" height="45"/>
        <rect class="cls-1" x="2.5" y="2.5" width="40" height="40"/>
        <g>
          <path class="cls-2" d="M42,37.2h0S24.9,5.2,24.9,5.2c-.5-.9-1.4-1.5-2.4-1.5s-1.9.5-2.4,1.5L3,37.2c-.5.9-.4,1.9,0,2.7.5.8,1.4,1.3,2.4,1.3h34.2c1,0,1.9-.5,2.4-1.3.5-.8.5-1.9,0-2.7ZM41,39.3c-.3.5-.8.8-1.4.8H5.4c-.6,0-1.1-.3-1.4-.8-.3-.5-.3-1.1,0-1.6L21,5.7c.3-.6.8-.9,1.5-.9s1.2.3,1.5.9l17.1,31.9c.3.5.3,1.1,0,1.6Z"/>
          <path class="cls-2" d="M23,31.7c-.5,0-.8.1-1,.4-.2.3-.4.6-.4,1s.1.7.4.9c.2.3.6.4,1,.4s.8-.1,1-.4c.2-.3.4-.6.4-.9s-.1-.7-.4-1c-.2-.3-.6-.4-1-.4Z"/>
          <path class="cls-2" d="M22.9,28.5c.6,0,1-.5,1-1v-12.4c.2-.3,0-.5-.2-.7-.2-.2-.5-.3-.8-.3h-.3c-.6,0-1.1.5-1.1,1.1l.2,12.4c0,.6.5,1,1.1,1Z"/>
        </g>
      </g>
    </g>
  </g>
</svg>