<svg id="Componente_62_4" data-name="Componente 62 – 4" xmlns="http://www.w3.org/2000/svg" xmlns:xlink="http://www.w3.org/1999/xlink" width="205.712" height="75.992" viewBox="0 0 205.712 75.992">
  <defs>
    <clipPath id="clip-path">
      <rect id="Rectángulo_104" data-name="Rectángulo 104" width="205.711" height="46.194" fill="none"/>
    </clipPath>
  </defs>
  <g id="Grupo_246" data-name="Grupo 246" transform="translate(0.002)">
    <g id="Grupo_245" data-name="Grupo 245" clip-path="url(#clip-path)">
      <path id="Trazado_339" data-name="Trazado 339" d="M679.6,78.434h17.072c8.655,0,15.057,4.268,15.057,13.136s-4.719,11.856-12.247,11.856h-6.888v10.765H679.6V78.434Zm12.994,15.982h1.328c2.359,0,4.92-.379,4.92-3.272s-2.751-2.94-4.968-2.94h-1.28Z" transform="translate(-599.028 -69.135)" fill="#1254a1"/>
      <path id="Trazado_340" data-name="Trazado 340" d="M977.1,78.434h13.48v24.281H1001.9v11.476H977.1V78.434Z" transform="translate(-861.256 -69.135)" fill="#1254a1"/>
      <path id="Trazado_341" data-name="Trazado 341" d="M1205.188,110.125l5.323-31.691h13.871l5.122,18.78h.344a37.684,37.684,0,0,1,.937-4.742l4.185-14.037H1248.7l6.106,35.745h-13.042l-1.826-19.586h-.249a27.887,27.887,0,0,1-.889,3.557l-5.359,16.029h-7.872l-4.825-15.128a24.6,24.6,0,0,1-.842-4.458h-.439c-.095,1.423-.2,2.893-.344,4.316l-1.577,15.27H1204.5l.688-4.067" transform="translate(-1061.696 -69.135)" fill="#1254a1"/>
      <path id="Trazado_342" data-name="Trazado 342" d="M1634.7,84.374a5.952,5.952,0,1,1,5.952,5.94A5.908,5.908,0,0,1,1634.7,84.374Zm.96,0a4.98,4.98,0,1,0,4.979-4.968A4.961,4.961,0,0,0,1635.66,84.374Zm7.706,3.391h-1.1l-1.707-3.083h-1.233v3.083h-.96V81.09h2.81c1.209,0,2.3.368,2.3,1.767a1.646,1.646,0,0,1-1.778,1.826l1.7,3.083Zm-4.055-5.715v1.66h1.031c.9,0,2.146.154,2.146-.759s-.711-.9-1.506-.9h-1.672Z" transform="translate(-1440.892 -69.135)" fill="#1254a1"/>
      <path id="Trazado_343" data-name="Trazado 343" d="M30.932,60.947a11.785,11.785,0,0,1-2.087,6.936,13.914,13.914,0,0,1-5.632,4.636,18.113,18.113,0,0,1-7.777,1.648,17.531,17.531,0,0,1-7.718-1.684,13.9,13.9,0,0,1-5.632-4.754A12.262,12.262,0,0,1,0,60.639c0-2.679.3-2.9.889-4.1a11.563,11.563,0,0,1,2.241-3.13A16.131,16.131,0,0,1,5.9,51.189a8.42,8.42,0,0,1-2.383-1.861,10.079,10.079,0,0,1-1.684-2.6,7.281,7.281,0,0,1-.652-2.976A10.006,10.006,0,0,1,2.513,38.6a11.938,11.938,0,0,1,3.45-3.77,16.9,16.9,0,0,1,4.6-2.3,15.821,15.821,0,0,1,4.885-.794,16.154,16.154,0,0,1,4.92.794,17.074,17.074,0,0,1,4.659,2.3,11.708,11.708,0,0,1,3.45,3.711,9.877,9.877,0,0,1,1.292,5.1,5.13,5.13,0,0,1-.617,3,9.53,9.53,0,0,1-1.707,2.679,8.144,8.144,0,0,1-2.383,1.861,18.635,18.635,0,0,1,2.774,2.3A11.519,11.519,0,0,1,30.078,56.7a9.673,9.673,0,0,1,.889,4.221Zm-9.544-.581a4.806,4.806,0,0,0-.5-2.217,4.967,4.967,0,0,0-1.352-1.66,6.381,6.381,0,0,0-4.09-1.4,7.527,7.527,0,0,0-2.976.676,5.577,5.577,0,0,0-2.122,1.861,4.866,4.866,0,0,0-.794,2.786,3.735,3.735,0,0,0,.5,2.1A5.394,5.394,0,0,0,11.382,64.2a5.482,5.482,0,0,0,1.885,1.067,6.837,6.837,0,0,0,2.181.356,6.466,6.466,0,0,0,2.976-.676,5.739,5.739,0,0,0,2.146-1.861,4.693,4.693,0,0,0,.83-2.727ZM10.836,43.946a3.778,3.778,0,0,0,.676,2.324,4.094,4.094,0,0,0,1.767,1.352,5.76,5.76,0,0,0,2.205.439,4.983,4.983,0,0,0,2.122-.474,4.674,4.674,0,0,0,1.8-1.387,3.61,3.61,0,0,0,.735-2.324,2.779,2.779,0,0,0-.652-1.968,4.526,4.526,0,0,0-1.684-1.352,5.419,5.419,0,0,0-2.383-.5,4.87,4.87,0,0,0-2.324.534,4.625,4.625,0,0,0-1.648,1.387,3.265,3.265,0,0,0-.617,1.968" transform="translate(0 -27.972)" fill="#3090ff"/>
      <rect id="Rectángulo_103" data-name="Rectángulo 103" width="2.691" height="0.794" transform="translate(43.736 20.728)" fill="#1254a1"/>
      <path id="Trazado_344" data-name="Trazado 344" d="M270.125,184.134h1.34l2.5,6.817H272.6l-.569-1.7h-2.5l-.569,1.7H267.6l2.513-6.817Zm1.612,4.185-.937-2.81-.948,2.81Z" transform="translate(-235.874 -162.303)" fill="#1254a1"/>
      <path id="Trazado_345" data-name="Trazado 345" d="M356.728,186.576v4.375H355.4v-6.817h1.055l3.521,4.493v-4.482H361.3v6.805h-1.1Z" transform="translate(-313.264 -162.303)" fill="#1254a1"/>
      <path id="Trazado_346" data-name="Trazado 346" d="M444.72,190.646a3.227,3.227,0,0,1-1.363-.285,3.1,3.1,0,0,1-1.043-.783,3.469,3.469,0,0,1-.676-1.114,3.389,3.389,0,0,1-.237-1.269,3.517,3.517,0,0,1,.948-2.407,3.414,3.414,0,0,1,1.055-.771,3.12,3.12,0,0,1,1.34-.285,3.012,3.012,0,0,1,1.352.3,3.3,3.3,0,0,1,1.043.794,3.948,3.948,0,0,1,.676,1.114,3.346,3.346,0,0,1,.237,1.269,3.479,3.479,0,0,1-.249,1.292,3.561,3.561,0,0,1-.7,1.1,3.2,3.2,0,0,1-1.055.759,3.1,3.1,0,0,1-1.328.273Zm-1.968-3.45a2.917,2.917,0,0,0,.13.854,2.3,2.3,0,0,0,.391.735,1.891,1.891,0,0,0,.628.51,1.762,1.762,0,0,0,.842.19,1.819,1.819,0,0,0,1.482-.735,2.407,2.407,0,0,0,.379-.735,2.805,2.805,0,0,0,.13-.818,2.685,2.685,0,0,0-.142-.854,2.732,2.732,0,0,0-.391-.735,1.891,1.891,0,0,0-.628-.51,1.747,1.747,0,0,0-.83-.19,1.815,1.815,0,0,0-.854.2,1.881,1.881,0,0,0-.616.522,2.279,2.279,0,0,0-.379.735,2.822,2.822,0,0,0-.13.83Z" transform="translate(-389.068 -161.951)" fill="#1254a1"/>
      <path id="Trazado_347" data-name="Trazado 347" d="M533.964,185.484a1.378,1.378,0,0,0-.249-.178,3.5,3.5,0,0,0-.427-.225,5.08,5.08,0,0,0-.557-.19,2.125,2.125,0,0,0-.6-.083,1.368,1.368,0,0,0-.806.2.666.666,0,0,0-.273.569.48.48,0,0,0,.178.439,1.336,1.336,0,0,0,.522.273c.237.071.522.154.866.249a5.778,5.778,0,0,1,1.162.391,1.878,1.878,0,0,1,.759.617,1.679,1.679,0,0,1,.261,1,1.926,1.926,0,0,1-.2.937,1.674,1.674,0,0,1-.557.628,2.588,2.588,0,0,1-.806.344,4.109,4.109,0,0,1-.96.107,4.967,4.967,0,0,1-1.02-.107,4.74,4.74,0,0,1-.984-.308,4.353,4.353,0,0,1-.865-.474l.581-1.138a1.725,1.725,0,0,0,.308.225,3.181,3.181,0,0,0,.534.273,5.191,5.191,0,0,0,.688.237,3.243,3.243,0,0,0,.759.095,1.805,1.805,0,0,0,.818-.178.576.576,0,0,0,.285-.51.531.531,0,0,0-.225-.474,1.867,1.867,0,0,0-.617-.3c-.261-.083-.569-.178-.937-.285a6.492,6.492,0,0,1-1.079-.4,1.68,1.68,0,0,1-.64-.569,1.615,1.615,0,0,1-.213-.865,2.262,2.262,0,0,1,.332-1.174,2.094,2.094,0,0,1,.9-.723,3.089,3.089,0,0,1,1.257-.249,3.044,3.044,0,0,1,.913.107,5.362,5.362,0,0,1,.806.273,4.568,4.568,0,0,1,.676.379l-.581,1.079Z" transform="translate(-466.635 -161.863)" fill="#1254a1"/>
      <path id="Trazado_348" data-name="Trazado 348" d="M282.1,44.7a9.008,9.008,0,0,1,2.715-3.059,6.675,6.675,0,0,1,3.972-1.2,6.757,6.757,0,0,1,3.889,1.1,8.95,8.95,0,0,1,2.739,2.94,13.952,13.952,0,0,1,1.292,2.869h6.189a3.8,3.8,0,0,1-1.091-2.668v-3h-3a3.835,3.835,0,0,1-3.829-3.829,3.458,3.458,0,0,1,2.585-3.616c-.225-.142-.439-.273-.676-.415a15.791,15.791,0,0,0-8.038-1.992,15.581,15.581,0,0,0-7.742,1.838,18.671,18.671,0,0,0-5.809,4.92,23.208,23.208,0,0,0-3.711,6.817c-.225.652-.415,1.3-.581,1.944h9.959a15.741,15.741,0,0,1,1.15-2.668Z" transform="translate(-238.871 -28.06)" fill="#3090ff"/>
      <path id="Trazado_349" data-name="Trazado 349" d="M294.913,256.886a9.164,9.164,0,0,1-2.679,3.059,6.768,6.768,0,0,1-4.067,1.2,6.576,6.576,0,0,1-3.889-1.1,8.763,8.763,0,0,1-2.715-2.94,15.064,15.064,0,0,1-1.352-3.165H270.3c.154.64.332,1.292.545,1.944a23.124,23.124,0,0,0,3.509,6.817,18.2,18.2,0,0,0,5.8,5.062,16.716,16.716,0,0,0,8.015,1.992,16.2,16.2,0,0,0,7.742-1.838,18.521,18.521,0,0,0,5.857-4.885,22.547,22.547,0,0,0,3.687-6.782,22.944,22.944,0,0,0,.652-2.3h-9.959a15.971,15.971,0,0,1-1.245,2.964Z" transform="translate(-238.254 -223.828)" fill="#3090ff"/>
      <path id="Trazado_350" data-name="Trazado 350" d="M530.214,60.676a3.892,3.892,0,0,0,1.186,2.8,3.852,3.852,0,0,0,2.7,1.1h2.988v-.9H534.1a2.994,2.994,0,0,1-2.988-2.988V57.7h-.9v2.976Z" transform="translate(-467.353 -50.859)" fill="#2671bc"/>
      <path id="Trazado_351" data-name="Trazado 351" d="M487.427,63.386a3.892,3.892,0,0,1-1.186-2.8V57.6H483.3a2.988,2.988,0,1,0,0,5.975h3.841v3.841a2.988,2.988,0,1,0,5.975,0v-2.94h-2.988a3.852,3.852,0,0,1-2.7-1.1Z" transform="translate(-423.369 -50.771)" fill="#3090ff"/>
      <path id="Trazado_352" data-name="Trazado 352" d="M547.731,6.829h-3.841V2.988a2.988,2.988,0,0,0-5.975,0V9.817a3,3,0,0,0,.913,2.146,2.961,2.961,0,0,0,2.075.842h6.829a2.988,2.988,0,0,0,0-5.975Z" transform="translate(-474.14 0)" fill="#3090ff"/>
    </g>
  </g>
  <text id="Receta_digital" data-name="Receta digital" transform="translate(71.834 70.992)" fill="#3090ff" font-size="22" font-family="Roboto"><tspan x="0" y="0">Receta digital</tspan></text>
  <path id="Trazado_372" data-name="Trazado 372" d="M32.166-3556h71.716" transform="translate(-32.166 3620.16)" fill="none" stroke="#3090ff" stroke-width="1"/>
</svg>
