<svg xmlns="http://www.w3.org/2000/svg" xmlns:xlink="http://www.w3.org/1999/xlink" width="81.688" height="63.101" viewBox="0 0 81.688 63.101">
  <defs>
    <clipPath id="clip-path">
      <rect id="Rectángulo_163" data-name="Rectángulo 163" width="81.688" height="63.101" fill="none"/>
    </clipPath>
  </defs>
  <g id="Grupo_413" data-name="Grupo 413" clip-path="url(#clip-path)">
    <path id="Trazado_411" data-name="Trazado 411" d="M3.889,191.52H14.925c5.6,0,9.732,2.758,9.732,8.489,0,4.719-3.053,7.662-7.919,7.662H12.285v6.957h-8.4Zm8.4,10.328h.859c1.526,0,3.18-.245,3.18-2.115,0-1.808-1.781-1.9-3.212-1.9h-.827Z" transform="translate(-3.077 -151.526)" fill="#1254a1"/>
    <path id="Trazado_412" data-name="Trazado 412" d="M113.049,191.52h8.714v15.691h7.315v7.417H113.049Z" transform="translate(-89.442 -151.526)" fill="#1254a1"/>
    <path id="Trazado_413" data-name="Trazado 413" d="M200.39,191.52h8.969l3.308,12.136h.223a24.913,24.913,0,0,1,.6-3.065l2.7-9.071h8.873l3.944,23.107h-8.428l-1.177-12.657h-.159a18.719,18.719,0,0,1-.572,2.3l-3.467,10.358h-5.088l-3.117-9.776a15.3,15.3,0,0,1-.541-2.881h-.286c-.063.919-.127,1.869-.223,2.789l-1.018,9.868H196.51Z" transform="translate(-155.474 -151.526)" fill="#1254a1"/>
    <path id="Trazado_414" data-name="Trazado 414" d="M354.367,195.359a3.844,3.844,0,1,1,3.844,3.838,3.814,3.814,0,0,1-3.844-3.838m.624,0a3.219,3.219,0,1,0,3.219-3.213,3.21,3.21,0,0,0-3.219,3.213m4.975,2.188h-.712l-1.1-1.992h-.8v1.992h-.624V193.23h1.814c.781,0,1.483.234,1.483,1.143a1.1,1.1,0,0,1-1.151,1.182Zm-2.614-3.692v1.074h.663c.585,0,1.385.1,1.385-.488,0-.547-.459-.586-.976-.586Z" transform="translate(-280.367 -151.527)" fill="#1254a1"/>
    <path id="Trazado_415" data-name="Trazado 415" d="M30.213,31.72a29.833,29.833,0,0,1,1.57-10.032,13.174,13.174,0,0,0-2.476-1.78A11.228,11.228,0,0,0,31.6,17.8a9.237,9.237,0,0,0,2.049-6.031A9.758,9.758,0,0,0,31.6,5.539,13.518,13.518,0,0,0,25.94,1.471,22.118,22.118,0,0,0,17.544,0,22.17,22.17,0,0,0,9.176,1.471,13.485,13.485,0,0,0,3.492,5.539a9.753,9.753,0,0,0-2.049,6.233A9.152,9.152,0,0,0,3.52,17.8a11.52,11.52,0,0,0,2.287,2.089,12.509,12.509,0,0,0-3.586,2.931A9.846,9.846,0,0,0,0,29.315a10.63,10.63,0,0,0,2.222,6.723c.063.081.128.16.193.239H30.5a35.314,35.314,0,0,1-.285-4.558M14.081,9.117a5.262,5.262,0,0,1,3.463-1.1,5.382,5.382,0,0,1,3.491,1.1,3.846,3.846,0,0,1,1.356,3.174,3.834,3.834,0,0,1-1.327,3.088,5.261,5.261,0,0,1-3.52,1.125,5.169,5.169,0,0,1-3.463-1.125,3.831,3.831,0,0,1-1.327-3.088,3.88,3.88,0,0,1,1.327-3.174m7.877,23.545a6.821,6.821,0,0,1-4.415,1.327,6.82,6.82,0,0,1-4.415-1.327,4.48,4.48,0,0,1-1.645-3.693A4.5,4.5,0,0,1,13.129,25.3a6.728,6.728,0,0,1,4.415-1.356A6.729,6.729,0,0,1,21.958,25.3,4.5,4.5,0,0,1,23.6,28.969a4.48,4.48,0,0,1-1.645,3.693" transform="translate(0 0.001)" fill="#3090ff"/>
    <path id="Trazado_416" data-name="Trazado 416" d="M156.351,173.729h-.068c0,.024.006.049.01.073l.058-.073" transform="translate(-123.648 -137.45)" fill="#fff"/>
    <path id="Trazado_417" data-name="Trazado 417" d="M261.4,57.159h3.959v3.959a3.076,3.076,0,0,0,5.1,2.322c-.144-.34-.294-.674-.454-1a17.039,17.039,0,0,0-6.319-7.156,16.246,16.246,0,0,0-5.241-2.087,3.059,3.059,0,0,0-.129.877,3.091,3.091,0,0,0,3.083,3.083" transform="translate(-204.375 -42.09)" fill="#1d91d3"/>
    <path id="Trazado_418" data-name="Trazado 418" d="M182.626,59.622V56.528h-3.094a3.947,3.947,0,0,1-3.81-4.985,19.375,19.375,0,0,0-3.05-.235,16.568,16.568,0,0,0-15.524,9.637,19.963,19.963,0,0,0-1.237,3.19,28.851,28.851,0,0,0-1.071,8.179,33.061,33.061,0,0,0,.3,4.558h11.5a29.018,29.018,0,0,1-.317-4.558,22.414,22.414,0,0,1,.837-6.81,7.777,7.777,0,0,1,2.251-3.693,5.183,5.183,0,0,1,6.521,0,7.624,7.624,0,0,1,2.222,3.693,23.189,23.189,0,0,1,.808,6.81,30.041,30.041,0,0,1-.306,4.558h11.489a33.025,33.025,0,0,0,.3-4.558,27.391,27.391,0,0,0-1.517-9.526,3.946,3.946,0,0,1-6.3-3.167" transform="translate(-122.507 -40.594)" fill="#3090ff"/>
    <path id="Trazado_419" data-name="Trazado 419" d="M265.36,48.8v3.959a3.083,3.083,0,0,0,6.166,0V48.8h-3.083a3.1,3.1,0,0,1-3.083-3.083V42.632H261.4a3.083,3.083,0,0,0,0,6.166" transform="translate(-204.375 -33.729)" fill="#3090ff"/>
    <path id="Trazado_420" data-name="Trazado 420" d="M302.166,15.951h-3.959V11.992a3.083,3.083,0,0,0-6.166,0v3.094h.865v3.948a2.23,2.23,0,0,0,2.218,2.218H299.9v.865h2.262a3.083,3.083,0,0,0,0-6.166" transform="translate(-231.056 -7.049)" fill="#3090ff"/>
    <path id="Trazado_421" data-name="Trazado 421" d="M295.125,44.655a2.23,2.23,0,0,1-2.218-2.218V38.489h-.865v3.948a3.1,3.1,0,0,0,3.083,3.083h4.781v-.865" transform="translate(-231.057 -30.452)" fill="#3090ff"/>
    <path id="Trazado_422" data-name="Trazado 422" d="M288.507,42.632h-.933v3.083a4.028,4.028,0,0,0,4.016,4.016h3.083V48.8H291.59a3.1,3.1,0,0,1-3.083-3.083Z" transform="translate(-227.522 -33.729)" fill="#2671bc" fill-rule="evenodd"/>
  </g>
</svg>
