<?xml version="1.0" encoding="UTF-8"?>
<svg id="Capa_2" xmlns="http://www.w3.org/2000/svg" viewBox="0 0 45 45">
  <defs>
    <style>
      .cls-1 {
        fill: none;
      }

      .cls-2 {
        fill: #93c4fc;
      }
    </style>
  </defs>
  <g id="Capa_1-2" data-name="Capa_1">
    <g>
      <rect class="cls-1" width="45" height="45"/>
      <rect class="cls-1" x="2.5" y="2.5" width="40" height="40"/>
      <g>
        <path class="cls-2" d="M22.59,28.16l-.21-.1c-.38-.19-9.39-4.69-11.05-11.75v-.1c-.12-4.68-.07-6.67,0-6.97l.06-.22.21-.1c.08-.04,8.21-3.8,10.67-6.12l.33-.31.33.32c2.73,2.66,10.56,5.86,10.64,5.9l.3.12v7.44c-.04.34-1,7.08-11.07,11.79l-.21.1ZM12.28,16.15c1.45,6.03,8.99,10.25,10.33,10.96,9.36-4.47,10.3-10.82,10.31-10.89v-6.75c-1.44-.6-7.55-3.24-10.33-5.67-2.61,2.2-8.98,5.24-10.34,5.88-.03.48-.07,2.02.03,6.46Z"/>
        <path class="cls-2" d="M22.57,22.19c-3.74,0-6.79-3.05-6.79-6.79s3.05-6.79,6.79-6.79,6.79,3.05,6.79,6.79-3.05,6.79-6.79,6.79ZM22.57,9.56c-3.22,0-5.84,2.62-5.84,5.84s2.62,5.84,5.84,5.84,5.84-2.62,5.84-5.84-2.62-5.84-5.84-5.84Z"/>
        <path class="cls-2" d="M8.41,42.5c-.23,0-.46-.05-.67-.16-.36-.18-.62-.49-.74-.86l-3.25-9.87c-.12-.38-.09-.78.08-1.14.18-.36.49-.62.86-.74l1.56-.51c.38-.12.78-.09,1.14.08.35.18.62.49.74.86l3.25,9.87c.12.38.09.78-.08,1.14s-.49.62-.86.74h0s-1.56.51-1.56.51c-.15.05-.31.08-.47.08ZM6.72,30.09c-.06,0-.11,0-.17.03l-1.56.51c-.14.05-.25.14-.31.27-.06.13-.08.27-.03.41l3.25,9.87c.04.14.14.25.27.31.13.07.27.08.41.03l1.56-.51c.14-.04.25-.14.31-.27.06-.13.08-.27.03-.41l-3.25-9.87c-.04-.14-.14-.25-.27-.31-.08-.04-.16-.06-.24-.06ZM10.29,41.46h0,0Z"/>
        <path class="cls-2" d="M11.91,40.89c-.23,0-.46-.05-.67-.16-.36-.18-.62-.49-.74-.86l-2.84-8.61c-.12-.38-.09-.78.08-1.14s.49-.62.86-.74c.78-.26,1.62.17,1.88.95l2.84,8.61c.12.38.09.78-.08,1.14s-.49.62-.86.74c-.15.05-.31.08-.47.08ZM9.08,30.25c-.06,0-.11,0-.17.03-.28.09-.43.4-.34.68l2.84,8.61c.09.28.4.44.68.34.28-.09.43-.4.34-.68l-2.84-8.61c-.07-.23-.29-.37-.51-.37Z"/>
        <path class="cls-2" d="M23.97,36.3c-.71,0-1.4-.43-1.95-.77-.3-.19-.58-.36-.84-.46-.2-.08-.42-.18-.66-.29-1.12-.5-2.65-1.18-4.14-.76-.25.07-.52-.07-.59-.33-.07-.25.07-.52.33-.59,1.82-.52,3.53.25,4.79.8.23.1.44.2.63.27.33.13.66.34.99.54,1.18.74,1.68.93,2.28,0,.17-.27.23-.55.16-.84-.18-.76-1.12-1.47-1.47-1.68-.07-.05-5.32-3.55-7.7-3.74-2.37-.2-5.45,1.45-5.48,1.46-.23.12-.52.04-.64-.19s-.04-.52.19-.64c.14-.07,3.36-1.8,6.01-1.57,2.62.22,7.9,3.74,8.13,3.89.04.03,1.58.96,1.89,2.26.13.55.03,1.08-.28,1.57-.51.79-1.08,1.06-1.64,1.06Z"/>
        <path class="cls-2" d="M22.52,42.27c-.31,0-.62-.03-.92-.1l-8.91-1.88-3.37-10.43c-.08-.25.06-.52.31-.6.25-.08.52.06.6.31l3.2,9.91,8.37,1.77c.85.18,1.74.04,2.49-.4l15.47-8.98c.05-.03.44-.2.58-.59.1-.29.04-.65-.17-1.07-.17-.34-.39-.54-.65-.61-.47-.13-.98.17-.98.17l-12.04,6.21c-.23.12-.52.03-.64-.21s-.03-.52.21-.64l12.01-6.19c.05-.04.84-.5,1.7-.26.53.15.95.51,1.24,1.09.35.67.42,1.29.22,1.84-.28.76-.97,1.07-1.05,1.1l-15.41,8.95c-.69.4-1.46.6-2.24.6Z"/>
        <path class="cls-2" d="M26.17,32.47c-.18,0-.34-.1-.43-.27-.12-.24-.02-.52.22-.64l6.92-3.43c1.51-.75,2.25-.76,2.33-.75,1.76-.24,2.76,2.07,2.8,2.16.1.24-.01.52-.26.62-.24.1-.52-.01-.62-.26,0-.02-.73-1.72-1.87-1.58-.08,0-.67.01-1.95.65l-6.92,3.43c-.07.03-.14.05-.21.05Z"/>
        <path class="cls-2" d="M23.03,31.29c-.18,0-.35-.1-.43-.27-.11-.24,0-.52.23-.63l6.63-3.12c.51-.24,1.09-.3,1.64-.18l.45.1c.49.11.93.36,1.28.73l.41.43c.18.19.17.49-.02.67-.19.18-.49.17-.67-.02l-.41-.43c-.22-.23-.49-.38-.8-.45l-.45-.1c-.34-.08-.7-.04-1.02.11l-6.63,3.12c-.07.03-.13.05-.2.05Z"/>
        <path class="cls-2" d="M24.7,17.36c-.08,0-.17-.02-.25-.07l-2.36-1.43v-4.1c0-.26.21-.48.48-.48s.48.21.48.48v3.57l1.9,1.15c.23.14.3.43.16.65-.09.15-.25.23-.41.23Z"/>
      </g>
    </g>
  </g>
</svg>