<svg id="Grupo_171" data-name="Grupo 171" xmlns="http://www.w3.org/2000/svg" xmlns:xlink="http://www.w3.org/1999/xlink" width="26" height="17" viewBox="0 0 26 17">
  <defs>
    <clipPath id="clip-path">
      <rect id="Rectángulo_87" data-name="Rectángulo 87" width="26" height="17" fill="none"/>
    </clipPath>
  </defs>
  <g id="Grupo_169" data-name="Grupo 169" clip-path="url(#clip-path)">
    <path id="Trazado_321" data-name="Trazado 321" d="M0,14.256H12.96v2.592H0Zm0-6.48H6.48v2.592H0ZM0,1.3H6.48V3.888H0ZM24.106,16.848l-4.99-4.99a5.791,5.791,0,0,1-1.7.827,6.514,6.514,0,0,1-1.862.275,6.252,6.252,0,0,1-4.585-1.895A6.252,6.252,0,0,1,9.072,6.48a6.254,6.254,0,0,1,1.895-4.585A6.252,6.252,0,0,1,15.552,0a6.252,6.252,0,0,1,4.585,1.895A6.254,6.254,0,0,1,22.032,6.48a6.53,6.53,0,0,1-.275,1.864,5.8,5.8,0,0,1-.827,1.7l4.99,4.99Zm-8.554-6.48a3.751,3.751,0,0,0,2.754-1.134A3.751,3.751,0,0,0,19.44,6.48a3.751,3.751,0,0,0-1.134-2.754,3.911,3.911,0,0,0-5.508,0A3.751,3.751,0,0,0,11.664,6.48,3.751,3.751,0,0,0,12.8,9.234a3.751,3.751,0,0,0,2.754,1.134" transform="translate(-0.144)" fill="#a3a3a3"/>
  </g>
</svg>
