<svg id="Grupo_94" data-name="Grupo 94" xmlns="http://www.w3.org/2000/svg" xmlns:xlink="http://www.w3.org/1999/xlink" width="20" height="20" viewBox="0 0 20 20">
  <defs>
    <clipPath id="clip-path">
      <rect id="Rectángulo_61" data-name="Rectángulo 61" width="20" height="20" fill="#a3a3a3"/>
    </clipPath>
  </defs>
  <g id="Grupo_93" data-name="Grupo 93" clip-path="url(#clip-path)">
    <path id="Trazado_297" data-name="Trazado 297" d="M11.5,20a6.265,6.265,0,0,1-4.6-1.9A6.265,6.265,0,0,1,5,13.5v-.575a5.8,5.8,0,0,1-3.575-2.012A5.824,5.824,0,0,1,0,7V1H3V0H5V4H3V3H2V7A3.852,3.852,0,0,0,3.175,9.825,3.852,3.852,0,0,0,6,11,3.852,3.852,0,0,0,8.825,9.825,3.852,3.852,0,0,0,10,7V3H9V4H7V0H9V1h3V7a5.824,5.824,0,0,1-1.425,3.913A5.8,5.8,0,0,1,7,12.925V13.5A4.481,4.481,0,0,0,11.5,18,4.483,4.483,0,0,0,16,13.5V11.825A2.986,2.986,0,0,1,14,9a3.005,3.005,0,0,1,5.125-2.125,3.013,3.013,0,0,1,.313,3.875A2.91,2.91,0,0,1,18,11.825V13.5a6.265,6.265,0,0,1-1.9,4.6A6.265,6.265,0,0,1,11.5,20M17,10a.984.984,0,1,0-.712-.288A.965.965,0,0,0,17,10" fill="#a3a3a3"/>
  </g>
</svg>
